G04*
G04 #@! TF.GenerationSoftware,Altium Limited,Altium Designer,20.1.14 (287)*
G04*
G04 Layer_Color=255*
%FSLAX44Y44*%
%MOMM*%
G71*
G04*
G04 #@! TF.SameCoordinates,0151AA7F-9923-44C8-ACC0-2CDA610C712D*
G04*
G04*
G04 #@! TF.FilePolarity,Positive*
G04*
G01*
G75*
%ADD17R,0.7366X2.7940*%
G04:AMPARAMS|DCode=18|XSize=1.49mm|YSize=0.28mm|CornerRadius=0.07mm|HoleSize=0mm|Usage=FLASHONLY|Rotation=270.000|XOffset=0mm|YOffset=0mm|HoleType=Round|Shape=RoundedRectangle|*
%AMROUNDEDRECTD18*
21,1,1.4900,0.1400,0,0,270.0*
21,1,1.3500,0.2800,0,0,270.0*
1,1,0.1400,-0.0700,-0.6750*
1,1,0.1400,-0.0700,0.6750*
1,1,0.1400,0.0700,0.6750*
1,1,0.1400,0.0700,-0.6750*
%
%ADD18ROUNDEDRECTD18*%
G04:AMPARAMS|DCode=19|XSize=1.49mm|YSize=0.28mm|CornerRadius=0.07mm|HoleSize=0mm|Usage=FLASHONLY|Rotation=180.000|XOffset=0mm|YOffset=0mm|HoleType=Round|Shape=RoundedRectangle|*
%AMROUNDEDRECTD19*
21,1,1.4900,0.1400,0,0,180.0*
21,1,1.3500,0.2800,0,0,180.0*
1,1,0.1400,-0.6750,0.0700*
1,1,0.1400,0.6750,0.0700*
1,1,0.1400,0.6750,-0.0700*
1,1,0.1400,-0.6750,-0.0700*
%
%ADD19ROUNDEDRECTD19*%
%ADD20R,1.1000X1.4000*%
%ADD21R,1.2000X1.4000*%
%ADD22R,1.4000X1.2000*%
%ADD23R,1.4000X1.1000*%
%ADD24R,1.0033X0.5080*%
%ADD25R,1.4000X0.7500*%
%ADD26R,1.5000X2.5000*%
%ADD27R,0.4500X1.5000*%
%ADD43R,1.5000X1.5000*%
%ADD44C,1.5000*%
%ADD45R,1.5000X1.5000*%
%ADD46O,2.2000X1.1000*%
D17*
X787400Y942340D02*
D03*
Y901700D02*
D03*
X774700Y942340D02*
D03*
Y901700D02*
D03*
X762000Y942340D02*
D03*
Y901700D02*
D03*
X749300Y942340D02*
D03*
Y901700D02*
D03*
X736600Y942340D02*
D03*
Y901700D02*
D03*
D18*
X713070Y668840D02*
D03*
X718070D02*
D03*
X723070D02*
D03*
X728070D02*
D03*
X733070D02*
D03*
X738070D02*
D03*
X743070D02*
D03*
X748070D02*
D03*
X753070D02*
D03*
X758070D02*
D03*
X763070D02*
D03*
X768070D02*
D03*
X773070D02*
D03*
X778070D02*
D03*
X783070D02*
D03*
X788070D02*
D03*
Y555440D02*
D03*
X783070D02*
D03*
X778070D02*
D03*
X773070D02*
D03*
X768070D02*
D03*
X763070D02*
D03*
X758070D02*
D03*
X753070D02*
D03*
X748070D02*
D03*
X743070D02*
D03*
X738070D02*
D03*
X733070D02*
D03*
X728070D02*
D03*
X723070D02*
D03*
X718070D02*
D03*
X713070D02*
D03*
D19*
X807270Y649640D02*
D03*
Y644640D02*
D03*
Y639640D02*
D03*
Y634640D02*
D03*
Y629640D02*
D03*
Y624640D02*
D03*
Y619640D02*
D03*
Y614640D02*
D03*
Y609640D02*
D03*
Y604640D02*
D03*
Y599640D02*
D03*
Y594640D02*
D03*
Y589640D02*
D03*
Y584640D02*
D03*
Y579640D02*
D03*
Y574640D02*
D03*
X693870D02*
D03*
Y579640D02*
D03*
Y584640D02*
D03*
Y589640D02*
D03*
Y594640D02*
D03*
Y599640D02*
D03*
Y604640D02*
D03*
Y609640D02*
D03*
Y614640D02*
D03*
Y619640D02*
D03*
Y624640D02*
D03*
Y629640D02*
D03*
Y634640D02*
D03*
Y639640D02*
D03*
Y644640D02*
D03*
Y649640D02*
D03*
D20*
X793510Y485140D02*
D03*
X778510D02*
D03*
X793750Y513080D02*
D03*
X778750D02*
D03*
X840740Y514350D02*
D03*
X825740D02*
D03*
X840620Y486410D02*
D03*
X825620D02*
D03*
X722630Y439420D02*
D03*
X737630D02*
D03*
X561460Y624840D02*
D03*
X576460D02*
D03*
X560190Y661670D02*
D03*
X575190D02*
D03*
X869830Y726440D02*
D03*
X854830D02*
D03*
X659010Y595630D02*
D03*
X644010D02*
D03*
X660280Y556260D02*
D03*
X645280D02*
D03*
D21*
X607060Y499110D02*
D03*
X589060D02*
D03*
D22*
X955040Y436990D02*
D03*
Y418990D02*
D03*
X504080Y499220D02*
D03*
Y481220D02*
D03*
D23*
X544830Y419220D02*
D03*
Y434220D02*
D03*
D24*
X648525Y465430D02*
D03*
Y446430D02*
D03*
X621474D02*
D03*
Y455930D02*
D03*
Y465430D02*
D03*
D25*
X632460Y654680D02*
D03*
Y640080D02*
D03*
D26*
X540030Y570230D02*
D03*
X575030D02*
D03*
D27*
X774550Y306070D02*
D03*
X781050D02*
D03*
X787550D02*
D03*
X794050D02*
D03*
X800550D02*
D03*
D43*
X405130Y679450D02*
D03*
X772160Y793750D02*
D03*
X632460Y326390D02*
D03*
X604520Y351790D02*
D03*
X1002030Y542290D02*
D03*
D44*
X405130Y654050D02*
D03*
Y628650D02*
D03*
Y603250D02*
D03*
Y577850D02*
D03*
Y552450D02*
D03*
X772160Y819150D02*
D03*
X632460Y351790D02*
D03*
X1055370Y363220D02*
D03*
X948690Y364490D02*
D03*
X604520Y326390D02*
D03*
X1002030Y567690D02*
D03*
D45*
X1029970Y363220D02*
D03*
X923290Y364490D02*
D03*
D46*
X787550Y287070D02*
D03*
X759550Y308570D02*
D03*
X815550D02*
D03*
M02*
