G04*
G04 #@! TF.GenerationSoftware,Altium Limited,Altium Designer,20.1.14 (287)*
G04*
G04 Layer_Color=8388736*
%FSLAX44Y44*%
%MOMM*%
G71*
G04*
G04 #@! TF.SameCoordinates,0151AA7F-9923-44C8-ACC0-2CDA610C712D*
G04*
G04*
G04 #@! TF.FilePolarity,Negative*
G04*
G01*
G75*
%ADD24R,1.0033X0.5080*%
%ADD28R,0.8382X2.8956*%
G04:AMPARAMS|DCode=29|XSize=1.6932mm|YSize=0.4832mm|CornerRadius=0.1716mm|HoleSize=0mm|Usage=FLASHONLY|Rotation=270.000|XOffset=0mm|YOffset=0mm|HoleType=Round|Shape=RoundedRectangle|*
%AMROUNDEDRECTD29*
21,1,1.6932,0.1400,0,0,270.0*
21,1,1.3500,0.4832,0,0,270.0*
1,1,0.3432,-0.0700,-0.6750*
1,1,0.3432,-0.0700,0.6750*
1,1,0.3432,0.0700,0.6750*
1,1,0.3432,0.0700,-0.6750*
%
%ADD29ROUNDEDRECTD29*%
G04:AMPARAMS|DCode=30|XSize=1.6932mm|YSize=0.4832mm|CornerRadius=0.1716mm|HoleSize=0mm|Usage=FLASHONLY|Rotation=180.000|XOffset=0mm|YOffset=0mm|HoleType=Round|Shape=RoundedRectangle|*
%AMROUNDEDRECTD30*
21,1,1.6932,0.1400,0,0,180.0*
21,1,1.3500,0.4832,0,0,180.0*
1,1,0.3432,-0.6750,0.0700*
1,1,0.3432,0.6750,0.0700*
1,1,0.3432,0.6750,-0.0700*
1,1,0.3432,-0.6750,-0.0700*
%
%ADD30ROUNDEDRECTD30*%
%ADD31R,1.3032X1.6032*%
%ADD32R,1.4032X1.6032*%
%ADD33R,1.6032X1.4032*%
%ADD34R,1.6032X1.3032*%
%ADD35R,1.6032X0.9532*%
%ADD36R,1.7032X2.7032*%
%ADD37R,0.6532X1.7032*%
%ADD38R,1.7032X1.7032*%
%ADD39C,1.7032*%
%ADD40R,1.7032X1.7032*%
%ADD41O,2.4032X1.3032*%
%ADD42C,1.4732*%
D24*
X648525Y465430D02*
D03*
Y446430D02*
D03*
X621474D02*
D03*
Y455930D02*
D03*
Y465430D02*
D03*
D28*
X787400Y942340D02*
D03*
Y901700D02*
D03*
X774700Y942340D02*
D03*
Y901700D02*
D03*
X762000Y942340D02*
D03*
Y901700D02*
D03*
X749300Y942340D02*
D03*
Y901700D02*
D03*
X736600Y942340D02*
D03*
Y901700D02*
D03*
D29*
X713070Y668840D02*
D03*
X718070D02*
D03*
X723070D02*
D03*
X728070D02*
D03*
X733070D02*
D03*
X738070D02*
D03*
X743070D02*
D03*
X748070D02*
D03*
X753070D02*
D03*
X758070D02*
D03*
X763070D02*
D03*
X768070D02*
D03*
X773070D02*
D03*
X778070D02*
D03*
X783070D02*
D03*
X788070D02*
D03*
Y555440D02*
D03*
X783070D02*
D03*
X778070D02*
D03*
X773070D02*
D03*
X768070D02*
D03*
X763070D02*
D03*
X758070D02*
D03*
X753070D02*
D03*
X748070D02*
D03*
X743070D02*
D03*
X738070D02*
D03*
X733070D02*
D03*
X728070D02*
D03*
X723070D02*
D03*
X718070D02*
D03*
X713070D02*
D03*
D30*
X807270Y649640D02*
D03*
Y644640D02*
D03*
Y639640D02*
D03*
Y634640D02*
D03*
Y629640D02*
D03*
Y624640D02*
D03*
Y619640D02*
D03*
Y614640D02*
D03*
Y609640D02*
D03*
Y604640D02*
D03*
Y599640D02*
D03*
Y594640D02*
D03*
Y589640D02*
D03*
Y584640D02*
D03*
Y579640D02*
D03*
Y574640D02*
D03*
X693870D02*
D03*
Y579640D02*
D03*
Y584640D02*
D03*
Y589640D02*
D03*
Y594640D02*
D03*
Y599640D02*
D03*
Y604640D02*
D03*
Y609640D02*
D03*
Y614640D02*
D03*
Y619640D02*
D03*
Y624640D02*
D03*
Y629640D02*
D03*
Y634640D02*
D03*
Y639640D02*
D03*
Y644640D02*
D03*
Y649640D02*
D03*
D31*
X793510Y485140D02*
D03*
X778510D02*
D03*
X793750Y513080D02*
D03*
X778750D02*
D03*
X840740Y514350D02*
D03*
X825740D02*
D03*
X840620Y486410D02*
D03*
X825620D02*
D03*
X722630Y439420D02*
D03*
X737630D02*
D03*
X561460Y624840D02*
D03*
X576460D02*
D03*
X560190Y661670D02*
D03*
X575190D02*
D03*
X869830Y726440D02*
D03*
X854830D02*
D03*
X659010Y595630D02*
D03*
X644010D02*
D03*
X660280Y556260D02*
D03*
X645280D02*
D03*
D32*
X607060Y499110D02*
D03*
X589060D02*
D03*
D33*
X955040Y436990D02*
D03*
Y418990D02*
D03*
X504080Y499220D02*
D03*
Y481220D02*
D03*
D34*
X544830Y419220D02*
D03*
Y434220D02*
D03*
D35*
X632460Y654680D02*
D03*
Y640080D02*
D03*
D36*
X540030Y570230D02*
D03*
X575030D02*
D03*
D37*
X774550Y306070D02*
D03*
X781050D02*
D03*
X787550D02*
D03*
X794050D02*
D03*
X800550D02*
D03*
D38*
X405130Y679450D02*
D03*
X772160Y793750D02*
D03*
X632460Y326390D02*
D03*
X604520Y351790D02*
D03*
X1002030Y542290D02*
D03*
D39*
X405130Y654050D02*
D03*
Y628650D02*
D03*
Y603250D02*
D03*
Y577850D02*
D03*
Y552450D02*
D03*
X772160Y819150D02*
D03*
X632460Y351790D02*
D03*
X1055370Y363220D02*
D03*
X948690Y364490D02*
D03*
X604520Y326390D02*
D03*
X1002030Y567690D02*
D03*
D40*
X1029970Y363220D02*
D03*
X923290Y364490D02*
D03*
D41*
X787550Y287070D02*
D03*
X759550Y308570D02*
D03*
X815550D02*
D03*
D42*
X981710Y805180D02*
D03*
X755650Y850900D02*
D03*
X619760Y728980D02*
D03*
X711200Y772160D02*
D03*
X457200Y737870D02*
D03*
X383540Y419100D02*
D03*
X751840Y500380D02*
D03*
X850704Y557530D02*
D03*
X853440Y579120D02*
D03*
X717550Y477520D02*
D03*
X713740Y499110D02*
D03*
X677545Y530340D02*
D03*
X706120Y520700D02*
D03*
X955040Y629920D02*
D03*
X853440Y621030D02*
D03*
X905510Y617220D02*
D03*
X854710Y600710D02*
D03*
X889635Y636905D02*
D03*
X890270Y599440D02*
D03*
X826770Y734060D02*
D03*
X889000Y704850D02*
D03*
X830580Y871220D02*
D03*
M02*
