G04*
G04 #@! TF.GenerationSoftware,Altium Limited,Altium Designer,20.1.14 (287)*
G04*
G04 Layer_Physical_Order=1*
G04 Layer_Color=255*
%FSLAX44Y44*%
%MOMM*%
G71*
G04*
G04 #@! TF.SameCoordinates,0151AA7F-9923-44C8-ACC0-2CDA610C712D*
G04*
G04*
G04 #@! TF.FilePolarity,Positive*
G04*
G01*
G75*
%ADD15C,0.1500*%
%ADD17R,0.7366X2.7940*%
G04:AMPARAMS|DCode=18|XSize=1.49mm|YSize=0.28mm|CornerRadius=0.07mm|HoleSize=0mm|Usage=FLASHONLY|Rotation=270.000|XOffset=0mm|YOffset=0mm|HoleType=Round|Shape=RoundedRectangle|*
%AMROUNDEDRECTD18*
21,1,1.4900,0.1400,0,0,270.0*
21,1,1.3500,0.2800,0,0,270.0*
1,1,0.1400,-0.0700,-0.6750*
1,1,0.1400,-0.0700,0.6750*
1,1,0.1400,0.0700,0.6750*
1,1,0.1400,0.0700,-0.6750*
%
%ADD18ROUNDEDRECTD18*%
G04:AMPARAMS|DCode=19|XSize=1.49mm|YSize=0.28mm|CornerRadius=0.07mm|HoleSize=0mm|Usage=FLASHONLY|Rotation=180.000|XOffset=0mm|YOffset=0mm|HoleType=Round|Shape=RoundedRectangle|*
%AMROUNDEDRECTD19*
21,1,1.4900,0.1400,0,0,180.0*
21,1,1.3500,0.2800,0,0,180.0*
1,1,0.1400,-0.6750,0.0700*
1,1,0.1400,0.6750,0.0700*
1,1,0.1400,0.6750,-0.0700*
1,1,0.1400,-0.6750,-0.0700*
%
%ADD19ROUNDEDRECTD19*%
%ADD20R,1.1000X1.4000*%
%ADD21R,1.2000X1.4000*%
%ADD22R,1.4000X1.2000*%
%ADD23R,1.4000X1.1000*%
%ADD24R,1.0033X0.5080*%
%ADD25R,1.4000X0.7500*%
%ADD26R,1.5000X2.5000*%
%ADD27R,0.4500X1.5000*%
%ADD43R,1.5000X1.5000*%
%ADD44C,1.5000*%
%ADD45R,1.5000X1.5000*%
%ADD46O,2.2000X1.1000*%
%ADD47C,1.2700*%
G36*
X1103630Y829310D02*
Y309880D01*
X1060450Y266700D01*
X378460D01*
X340360Y304800D01*
Y777240D01*
X386080Y822960D01*
Y829310D01*
X581660D01*
X652780Y900430D01*
Y1010920D01*
X685800Y1043940D01*
X889000D01*
X1103630Y829310D01*
D02*
G37*
%LPC*%
G36*
X843280Y1019354D02*
X753110D01*
X751826Y1019099D01*
X750738Y1018372D01*
X746928Y1014562D01*
X746201Y1013474D01*
X745946Y1012190D01*
Y958850D01*
X743077D01*
Y958850D01*
X742823D01*
Y958850D01*
X739955D01*
Y977900D01*
X739699Y979184D01*
X738972Y980272D01*
X727542Y991702D01*
X726454Y992429D01*
X725170Y992684D01*
X708660D01*
X707376Y992429D01*
X706288Y991702D01*
X688508Y973922D01*
X687781Y972834D01*
X687525Y971550D01*
Y746760D01*
X687781Y745476D01*
X688508Y744388D01*
X697398Y735498D01*
X698486Y734771D01*
X699770Y734516D01*
X731401D01*
X739715Y726201D01*
Y679669D01*
X738770Y678894D01*
X737370D01*
X736106Y678642D01*
X735570Y678284D01*
X735034Y678642D01*
X733770Y678894D01*
X732370D01*
X731106Y678642D01*
X730570Y678284D01*
X730034Y678642D01*
X728770Y678894D01*
X727370D01*
X726106Y678642D01*
X725570Y678284D01*
X725034Y678642D01*
X723770Y678894D01*
X722370D01*
X721106Y678642D01*
X720570Y678284D01*
X720034Y678642D01*
X718770Y678894D01*
X717370D01*
X716106Y678642D01*
X715570Y678284D01*
X715034Y678642D01*
X713770Y678894D01*
X712370D01*
X711106Y678642D01*
X710034Y677926D01*
X709318Y676854D01*
X709066Y675590D01*
Y662090D01*
X709318Y660826D01*
X710034Y659754D01*
X711106Y659038D01*
X712370Y658786D01*
X713770D01*
X715034Y659038D01*
X715570Y659396D01*
X716106Y659038D01*
X717370Y658786D01*
X718770D01*
X720034Y659038D01*
X720570Y659396D01*
X721106Y659038D01*
X722370Y658786D01*
X723770D01*
X725034Y659038D01*
X725570Y659396D01*
X726106Y659038D01*
X727370Y658786D01*
X728770D01*
X730034Y659038D01*
X730570Y659396D01*
X731106Y659038D01*
X732370Y658786D01*
X733770D01*
X735034Y659038D01*
X735570Y659396D01*
X736106Y659038D01*
X737370Y658786D01*
X738770D01*
X740034Y659038D01*
X740570Y659396D01*
X741106Y659038D01*
X742370Y658786D01*
X743770D01*
X745034Y659038D01*
X745570Y659396D01*
X746106Y659038D01*
X747370Y658786D01*
X748770D01*
X750034Y659038D01*
X750570Y659396D01*
X751106Y659038D01*
X752370Y658786D01*
X753770D01*
X755034Y659038D01*
X755570Y659396D01*
X756106Y659038D01*
X757370Y658786D01*
X758770D01*
X760034Y659038D01*
X760570Y659396D01*
X761106Y659038D01*
X761800Y658900D01*
Y660792D01*
X761823Y660826D01*
X762074Y662090D01*
Y668840D01*
Y675590D01*
X761823Y676854D01*
X761800Y676888D01*
Y679361D01*
X761544Y679571D01*
Y699014D01*
X778226Y715695D01*
X832940D01*
X834224Y715951D01*
X835312Y716678D01*
X841720Y723086D01*
X846790D01*
Y716900D01*
X868560D01*
Y726440D01*
Y735980D01*
X846790D01*
Y729794D01*
X840330D01*
X839046Y729539D01*
X837958Y728812D01*
X831551Y722404D01*
X776837D01*
X775553Y722149D01*
X774465Y721422D01*
X758103Y705061D01*
X756766Y705519D01*
X756678Y706214D01*
X781170Y730705D01*
X818537D01*
X819005Y729577D01*
X820430Y727720D01*
X822287Y726295D01*
X824449Y725399D01*
X826770Y725093D01*
X829091Y725399D01*
X831253Y726295D01*
X833110Y727720D01*
X834535Y729577D01*
X835431Y731739D01*
X835737Y734060D01*
X835431Y736381D01*
X834535Y738543D01*
X833110Y740400D01*
X831253Y741825D01*
X829091Y742721D01*
X826770Y743027D01*
X824449Y742721D01*
X822287Y741825D01*
X820430Y740400D01*
X819005Y738543D01*
X818537Y737414D01*
X779780D01*
X778496Y737159D01*
X777408Y736432D01*
X752598Y711622D01*
X751424Y712108D01*
Y749221D01*
X763390Y761186D01*
X855101D01*
X856385Y761441D01*
X857473Y762168D01*
X858352Y763047D01*
X859079Y764135D01*
X859334Y765419D01*
Y1003300D01*
X859079Y1004584D01*
X858352Y1005672D01*
X845652Y1018372D01*
X844564Y1019099D01*
X843280Y1019354D01*
D02*
G37*
G36*
X982980Y813979D02*
Y806450D01*
X990509D01*
X990371Y807501D01*
X989475Y809663D01*
X988050Y811520D01*
X986193Y812945D01*
X984031Y813841D01*
X982980Y813979D01*
D02*
G37*
G36*
X980440D02*
X979389Y813841D01*
X977227Y812945D01*
X975370Y811520D01*
X973945Y809663D01*
X973049Y807501D01*
X972911Y806450D01*
X980440D01*
Y813979D01*
D02*
G37*
G36*
X990509Y803910D02*
X982980D01*
Y796380D01*
X984031Y796519D01*
X986193Y797415D01*
X988050Y798840D01*
X989475Y800697D01*
X990371Y802859D01*
X990509Y803910D01*
D02*
G37*
G36*
X980440D02*
X972911D01*
X973049Y802859D01*
X973945Y800697D01*
X975370Y798840D01*
X977227Y797415D01*
X979389Y796519D01*
X980440Y796380D01*
Y803910D01*
D02*
G37*
G36*
X458470Y746669D02*
Y739140D01*
X465999D01*
X465861Y740191D01*
X464965Y742353D01*
X463540Y744210D01*
X461683Y745635D01*
X459521Y746531D01*
X458470Y746669D01*
D02*
G37*
G36*
X455930D02*
X454879Y746531D01*
X452717Y745635D01*
X450860Y744210D01*
X449435Y742353D01*
X448539Y740191D01*
X448400Y739140D01*
X455930D01*
Y746669D01*
D02*
G37*
G36*
X621030Y737779D02*
Y730250D01*
X628559D01*
X628421Y731301D01*
X627525Y733463D01*
X626100Y735320D01*
X624243Y736745D01*
X622081Y737641D01*
X621030Y737779D01*
D02*
G37*
G36*
X618490D02*
X617439Y737641D01*
X615277Y736745D01*
X613420Y735320D01*
X611995Y733463D01*
X611099Y731301D01*
X610961Y730250D01*
X618490D01*
Y737779D01*
D02*
G37*
G36*
X465999Y736600D02*
X458470D01*
Y729071D01*
X459521Y729209D01*
X461683Y730105D01*
X463540Y731530D01*
X464965Y733387D01*
X465861Y735549D01*
X465999Y736600D01*
D02*
G37*
G36*
X455930D02*
X448400D01*
X448539Y735549D01*
X449435Y733387D01*
X450860Y731530D01*
X452717Y730105D01*
X454879Y729209D01*
X455930Y729071D01*
Y736600D01*
D02*
G37*
G36*
X877870Y735980D02*
X871100D01*
Y727710D01*
X877870D01*
Y735980D01*
D02*
G37*
G36*
X628559Y727710D02*
X621030D01*
Y720181D01*
X622081Y720319D01*
X624243Y721215D01*
X626100Y722640D01*
X627525Y724497D01*
X628421Y726659D01*
X628559Y727710D01*
D02*
G37*
G36*
X618490D02*
X610961D01*
X611099Y726659D01*
X611995Y724497D01*
X613420Y722640D01*
X615277Y721215D01*
X617439Y720319D01*
X618490Y720181D01*
Y727710D01*
D02*
G37*
G36*
X558920Y671210D02*
X552150D01*
Y662940D01*
X558920D01*
Y671210D01*
D02*
G37*
G36*
Y660400D02*
X552150D01*
Y652130D01*
X558920D01*
Y660400D01*
D02*
G37*
G36*
X560190Y634380D02*
X553420D01*
Y626110D01*
X560190D01*
Y634380D01*
D02*
G37*
G36*
X405130Y638777D02*
X402509Y638432D01*
X400067Y637420D01*
X397969Y635811D01*
X396360Y633713D01*
X395348Y631271D01*
X395003Y628650D01*
X395348Y626029D01*
X396360Y623587D01*
X397969Y621489D01*
X400067Y619880D01*
X402509Y618868D01*
X405130Y618523D01*
X407751Y618868D01*
X410193Y619880D01*
X412291Y621489D01*
X413900Y623587D01*
X414912Y626029D01*
X415257Y628650D01*
X414912Y631271D01*
X413900Y633713D01*
X412291Y635811D01*
X410193Y637420D01*
X407751Y638432D01*
X405130Y638777D01*
D02*
G37*
G36*
X560190Y623570D02*
X553420D01*
Y615300D01*
X560190D01*
Y623570D01*
D02*
G37*
G36*
X814020Y653643D02*
X800520D01*
X799256Y653392D01*
X798184Y652676D01*
X797468Y651604D01*
X797216Y650340D01*
Y648940D01*
X797468Y647676D01*
X797826Y647140D01*
X797468Y646604D01*
X797330Y645910D01*
X799222D01*
X799256Y645888D01*
X800520Y645636D01*
X807270D01*
X814020D01*
X815284Y645888D01*
X815318Y645910D01*
X817791D01*
X818100Y646286D01*
X848840D01*
X861228Y633898D01*
X862316Y633171D01*
X863600Y632915D01*
X866596D01*
Y541834D01*
X847209D01*
X836475Y552570D01*
Y565266D01*
X836732Y565481D01*
X838368Y565318D01*
X842466Y561221D01*
Y560871D01*
X842043Y559851D01*
X841738Y557530D01*
X842043Y555209D01*
X842939Y553047D01*
X844364Y551190D01*
X846221Y549765D01*
X848384Y548869D01*
X850704Y548563D01*
X853025Y548869D01*
X855188Y549765D01*
X857045Y551190D01*
X858470Y553047D01*
X859365Y555209D01*
X859671Y557530D01*
X859365Y559851D01*
X858470Y562013D01*
X857045Y563870D01*
X855188Y565295D01*
X853025Y566191D01*
X850704Y566497D01*
X848384Y566191D01*
X847393Y565781D01*
X844094Y569080D01*
Y575133D01*
X845365Y575385D01*
X845675Y574637D01*
X847100Y572780D01*
X848957Y571355D01*
X851119Y570459D01*
X853440Y570153D01*
X855761Y570459D01*
X857923Y571355D01*
X859780Y572780D01*
X861205Y574637D01*
X862101Y576799D01*
X862407Y579120D01*
X862101Y581441D01*
X861205Y583603D01*
X859780Y585460D01*
X857923Y586885D01*
X855761Y587781D01*
X853440Y588087D01*
X851119Y587781D01*
X849990Y587314D01*
X841053Y596251D01*
X841678Y597421D01*
X842010Y597355D01*
X846477D01*
X846945Y596227D01*
X848370Y594370D01*
X850227Y592945D01*
X852389Y592049D01*
X854710Y591743D01*
X857031Y592049D01*
X859193Y592945D01*
X861050Y594370D01*
X862475Y596227D01*
X863371Y598389D01*
X863677Y600710D01*
X863371Y603031D01*
X862475Y605193D01*
X861050Y607050D01*
X859193Y608475D01*
X857031Y609371D01*
X854710Y609677D01*
X852389Y609371D01*
X850227Y608475D01*
X848370Y607050D01*
X846945Y605193D01*
X846477Y604064D01*
X843400D01*
X835204Y612259D01*
Y628916D01*
X836475Y629442D01*
X837385Y628531D01*
Y623570D01*
X837641Y622286D01*
X838368Y621198D01*
X840908Y618658D01*
X841996Y617931D01*
X843280Y617676D01*
X845207D01*
X845675Y616547D01*
X847100Y614690D01*
X848957Y613265D01*
X851119Y612369D01*
X853440Y612063D01*
X855761Y612369D01*
X857923Y613265D01*
X859780Y614690D01*
X861205Y616547D01*
X862101Y618709D01*
X862407Y621030D01*
X862101Y623351D01*
X861205Y625513D01*
X859780Y627370D01*
X857923Y628795D01*
X855761Y629691D01*
X853440Y629997D01*
X851119Y629691D01*
X848957Y628795D01*
X847100Y627370D01*
X845998Y625935D01*
X844667Y625675D01*
X844400Y625718D01*
X844094Y625966D01*
Y629920D01*
X843839Y631204D01*
X843112Y632292D01*
X833392Y642012D01*
X832304Y642739D01*
X831020Y642994D01*
X818100D01*
X817791Y643370D01*
X815318D01*
X815284Y643392D01*
X814020Y643644D01*
X807270D01*
X800520D01*
X799256Y643392D01*
X799222Y643370D01*
X797330D01*
X797468Y642676D01*
X797826Y642140D01*
X797468Y641604D01*
X797216Y640340D01*
Y638940D01*
X797468Y637676D01*
X797826Y637140D01*
X797468Y636604D01*
X797216Y635340D01*
Y633940D01*
X797468Y632676D01*
X797826Y632140D01*
X797468Y631604D01*
X797216Y630340D01*
Y628940D01*
X797468Y627676D01*
X797826Y627140D01*
X797468Y626604D01*
X797216Y625340D01*
Y623940D01*
X797468Y622676D01*
X797826Y622140D01*
X797468Y621604D01*
X797216Y620340D01*
Y618940D01*
X797468Y617676D01*
X797826Y617140D01*
X797468Y616604D01*
X797216Y615340D01*
Y613940D01*
X797468Y612676D01*
X797826Y612140D01*
X797468Y611604D01*
X797216Y610340D01*
Y608940D01*
X797468Y607676D01*
X797826Y607140D01*
X797468Y606604D01*
X797216Y605340D01*
Y603940D01*
X797468Y602676D01*
X797826Y602140D01*
X797468Y601604D01*
X797216Y600340D01*
Y598940D01*
X797468Y597676D01*
X797826Y597140D01*
X797468Y596604D01*
X797216Y595340D01*
Y593940D01*
X797468Y592676D01*
X797826Y592140D01*
X797468Y591604D01*
X797216Y590340D01*
Y588940D01*
X797468Y587676D01*
X797826Y587140D01*
X797468Y586604D01*
X797216Y585340D01*
Y583940D01*
X797468Y582676D01*
X797826Y582140D01*
X797468Y581604D01*
X797216Y580340D01*
Y578940D01*
X797468Y577676D01*
X797826Y577140D01*
X797468Y576604D01*
X797330Y575910D01*
X799222D01*
X799256Y575887D01*
X800520Y575636D01*
X807270D01*
Y574640D01*
X808540D01*
Y570636D01*
X814020D01*
X815284Y570888D01*
X816356Y571604D01*
X817072Y572676D01*
X818335Y572518D01*
Y545482D01*
X817866Y545389D01*
X816778Y544662D01*
X809158Y537042D01*
X808431Y535954D01*
X808176Y534670D01*
Y488950D01*
X808431Y487666D01*
X809158Y486578D01*
X811698Y484038D01*
X812786Y483311D01*
X814070Y483056D01*
X817580D01*
Y476870D01*
X839350D01*
Y486410D01*
Y495950D01*
X817580D01*
Y489765D01*
X815459D01*
X814884Y490340D01*
Y533280D01*
X817162Y535558D01*
X818335Y535072D01*
Y523890D01*
X817700D01*
Y504810D01*
X839470D01*
Y514350D01*
Y523890D01*
X825044D01*
Y542290D01*
Y574306D01*
X826314Y574832D01*
X829765Y571381D01*
Y551180D01*
X830021Y549896D01*
X830748Y548808D01*
X843448Y536108D01*
X844536Y535381D01*
X845820Y535126D01*
X866596D01*
Y480179D01*
X855201Y468784D01*
X736144D01*
Y481786D01*
X770470D01*
Y475600D01*
X792240D01*
Y485140D01*
Y494680D01*
X770470D01*
Y488494D01*
X736144D01*
Y509725D01*
X747853D01*
X748105Y508456D01*
X747357Y508145D01*
X745500Y506720D01*
X744075Y504863D01*
X743179Y502701D01*
X743040Y501650D01*
X760639D01*
X760501Y502701D01*
X759605Y504863D01*
X758180Y506720D01*
X756323Y508145D01*
X755575Y508456D01*
X755827Y509725D01*
X770710D01*
Y503540D01*
X792480D01*
Y513080D01*
Y522620D01*
X770710D01*
Y516435D01*
X736144D01*
Y544629D01*
X736800Y545167D01*
Y547392D01*
X736823Y547426D01*
X737074Y548690D01*
Y555440D01*
Y562190D01*
X736823Y563454D01*
X736800Y563488D01*
Y565380D01*
X736106Y565242D01*
X735570Y564884D01*
X735034Y565242D01*
X733770Y565494D01*
X732370D01*
X731106Y565242D01*
X730570Y564884D01*
X730034Y565242D01*
X728770Y565494D01*
X727370D01*
X726106Y565242D01*
X725570Y564884D01*
X725034Y565242D01*
X723770Y565494D01*
X722370D01*
X721106Y565242D01*
X720570Y564884D01*
X720034Y565242D01*
X718770Y565494D01*
X717370D01*
X716106Y565242D01*
X715570Y564884D01*
X715034Y565242D01*
X713770Y565494D01*
X712370D01*
X711106Y565242D01*
X710034Y564526D01*
X709318Y563454D01*
X709066Y562190D01*
Y548690D01*
X709318Y547426D01*
X709715Y546831D01*
Y530208D01*
X708446Y529359D01*
X708441Y529361D01*
X706120Y529667D01*
X703799Y529361D01*
X701637Y528465D01*
X699780Y527040D01*
X698355Y525183D01*
X697459Y523021D01*
X697153Y520700D01*
X697459Y518379D01*
X698355Y516217D01*
X699780Y514360D01*
X701637Y512935D01*
X703799Y512039D01*
X706120Y511733D01*
X708441Y512039D01*
X710603Y512935D01*
X712460Y514360D01*
X713446Y515643D01*
X714715Y515212D01*
Y508911D01*
X713761Y508074D01*
X713740Y508077D01*
X711419Y507771D01*
X709257Y506875D01*
X707400Y505450D01*
X705975Y503593D01*
X705079Y501431D01*
X704773Y499110D01*
X705079Y496789D01*
X705975Y494627D01*
X707400Y492770D01*
X709257Y491345D01*
X711419Y490449D01*
X713740Y490143D01*
X716061Y490449D01*
X718223Y491345D01*
X720080Y492770D01*
X721505Y494627D01*
X721815Y495375D01*
X723085Y495123D01*
Y485893D01*
X721815Y485376D01*
X719871Y486181D01*
X717550Y486487D01*
X715229Y486181D01*
X713067Y485285D01*
X711210Y483860D01*
X709785Y482003D01*
X708889Y479841D01*
X708583Y477520D01*
X708889Y475199D01*
X709785Y473037D01*
X711210Y471180D01*
X712676Y470055D01*
X712245Y468784D01*
X680265D01*
Y490220D01*
X680009Y491504D01*
X679282Y492592D01*
X670392Y501482D01*
X669304Y502209D01*
X668020Y502464D01*
X615600D01*
Y508650D01*
X609145D01*
Y527050D01*
X608889Y528334D01*
X608162Y529422D01*
X600542Y537042D01*
X599454Y537769D01*
X598170Y538024D01*
X548759D01*
X543384Y543400D01*
Y555190D01*
X550070D01*
Y585270D01*
X529990D01*
Y555190D01*
X536675D01*
Y542010D01*
X536931Y540726D01*
X537658Y539638D01*
X544998Y532298D01*
X546086Y531571D01*
X547370Y531315D01*
X596781D01*
X602435Y525661D01*
Y508650D01*
X598870D01*
X598520Y508650D01*
X597600D01*
X597250Y508650D01*
X580520D01*
Y502575D01*
X513620D01*
Y507760D01*
X494540D01*
Y491030D01*
X494540Y490680D01*
Y489760D01*
X494540Y489410D01*
Y482490D01*
X513620D01*
Y489410D01*
X513620Y489760D01*
Y490680D01*
X513620Y491030D01*
Y495866D01*
X580520D01*
Y489570D01*
X597250D01*
X597600Y489570D01*
X598520D01*
X598870Y489570D01*
X615600D01*
Y495756D01*
X666630D01*
X673556Y488830D01*
Y468784D01*
X656082D01*
Y470510D01*
X640969D01*
Y460350D01*
X656082D01*
Y462076D01*
X734276D01*
Y448960D01*
X723900D01*
Y439420D01*
Y429880D01*
X745670D01*
Y448960D01*
X740984D01*
Y462076D01*
X856590D01*
X857874Y462331D01*
X858962Y463058D01*
X872322Y476418D01*
X873049Y477506D01*
X873305Y478790D01*
Y538480D01*
Y632915D01*
X881665D01*
X881870Y632422D01*
X883295Y630565D01*
X885152Y629140D01*
X887314Y628244D01*
X889635Y627938D01*
X891956Y628244D01*
X894118Y629140D01*
X895975Y630565D01*
X897400Y632422D01*
X898296Y634584D01*
X898602Y636905D01*
X898296Y639226D01*
X897400Y641388D01*
X895975Y643245D01*
X894118Y644670D01*
X891956Y645566D01*
X889635Y645872D01*
X887314Y645566D01*
X885152Y644670D01*
X883295Y643245D01*
X881870Y641388D01*
X881139Y639624D01*
X864989D01*
X852602Y652012D01*
X851514Y652739D01*
X850230Y652995D01*
X815879D01*
X815284Y653392D01*
X814020Y653643D01*
D02*
G37*
G36*
X415170Y689490D02*
X395090D01*
Y669410D01*
X415170D01*
Y676096D01*
X486291D01*
X518615Y643771D01*
Y622300D01*
X518871Y621016D01*
X519598Y619928D01*
X527535Y611991D01*
X527761Y610856D01*
X528056Y610415D01*
X527377Y609145D01*
X522090D01*
X508815Y622420D01*
Y635000D01*
X508559Y636284D01*
X507832Y637372D01*
X488782Y656422D01*
X487694Y657149D01*
X486410Y657404D01*
X414608D01*
X413900Y659113D01*
X412291Y661211D01*
X410193Y662820D01*
X407751Y663832D01*
X405130Y664177D01*
X402509Y663832D01*
X400067Y662820D01*
X397969Y661211D01*
X396360Y659113D01*
X395348Y656671D01*
X395003Y654050D01*
X395348Y651429D01*
X396360Y648987D01*
X397969Y646889D01*
X400067Y645280D01*
X402509Y644268D01*
X405130Y643923D01*
X407751Y644268D01*
X410193Y645280D01*
X412291Y646889D01*
X413900Y648987D01*
X414608Y650695D01*
X485020D01*
X502105Y633610D01*
Y621030D01*
X502361Y619746D01*
X503088Y618658D01*
X518328Y603418D01*
X519416Y602691D01*
X520700Y602435D01*
X599440D01*
X600724Y602691D01*
X601812Y603418D01*
X618610Y620215D01*
X666750D01*
X668034Y620471D01*
X669122Y621198D01*
X679210Y631286D01*
X683040D01*
X683817Y630340D01*
Y628940D01*
X684068Y627676D01*
X684426Y627140D01*
X684068Y626604D01*
X683817Y625340D01*
Y623940D01*
X684068Y622676D01*
X684426Y622140D01*
X684068Y621604D01*
X683930Y620910D01*
X685822D01*
X685856Y620887D01*
X687120Y620636D01*
X700620D01*
X701884Y620887D01*
X701918Y620910D01*
X703810D01*
X703672Y621604D01*
X703314Y622140D01*
X703672Y622676D01*
X703923Y623940D01*
Y625340D01*
X703672Y626604D01*
X703314Y627140D01*
X703672Y627676D01*
X703923Y628940D01*
Y630340D01*
X703672Y631604D01*
X703314Y632140D01*
X703672Y632676D01*
X703923Y633940D01*
Y635340D01*
X703672Y636604D01*
X703314Y637140D01*
X703672Y637676D01*
X703923Y638940D01*
Y640340D01*
X703672Y641604D01*
X703314Y642140D01*
X703672Y642676D01*
X703923Y643940D01*
Y645340D01*
X703672Y646604D01*
X703314Y647140D01*
X703672Y647676D01*
X703923Y648940D01*
Y650340D01*
X703672Y651604D01*
X702956Y652676D01*
X701884Y653392D01*
X700620Y653643D01*
X687120D01*
X686874Y653595D01*
X668139D01*
X664682Y657052D01*
X663594Y657779D01*
X662310Y658035D01*
X642000D01*
Y660970D01*
X622920D01*
Y658674D01*
X607179D01*
X601812Y664042D01*
X600724Y664769D01*
X599440Y665024D01*
X583230D01*
Y671210D01*
X561460D01*
Y661670D01*
Y652130D01*
X583230D01*
Y658316D01*
X598051D01*
X603418Y652948D01*
X604506Y652221D01*
X605790Y651965D01*
X622920D01*
Y648390D01*
X642000D01*
Y651326D01*
X660920D01*
X664378Y647868D01*
X665025Y647436D01*
X665353Y645967D01*
X662821Y643435D01*
X642000D01*
Y646370D01*
X622920D01*
Y643435D01*
X610870D01*
X609586Y643179D01*
X608498Y642452D01*
X604688Y638642D01*
X603961Y637554D01*
X603705Y636270D01*
Y631310D01*
X600591Y628194D01*
X584500D01*
Y634380D01*
X562730D01*
Y624840D01*
Y615300D01*
X584500D01*
Y621485D01*
X600976D01*
X601502Y620215D01*
X594470Y613184D01*
X534560D01*
X534185Y613559D01*
X533959Y614694D01*
X533232Y615782D01*
X525325Y623689D01*
Y645160D01*
X525069Y646444D01*
X524342Y647532D01*
X490052Y681822D01*
X488964Y682549D01*
X487680Y682804D01*
X415170D01*
Y689490D01*
D02*
G37*
G36*
X667050Y605170D02*
X660280D01*
Y596900D01*
X667050D01*
Y605170D01*
D02*
G37*
G36*
X405130Y613377D02*
X402509Y613032D01*
X400067Y612020D01*
X397969Y610411D01*
X396360Y608313D01*
X395348Y605871D01*
X395003Y603250D01*
X395348Y600629D01*
X396360Y598187D01*
X397969Y596089D01*
X400067Y594480D01*
X402509Y593468D01*
X405130Y593123D01*
X407751Y593468D01*
X410193Y594480D01*
X412291Y596089D01*
X413900Y598187D01*
X414912Y600629D01*
X415257Y603250D01*
X414912Y605871D01*
X413900Y608313D01*
X412291Y610411D01*
X410193Y612020D01*
X407751Y613032D01*
X405130Y613377D01*
D02*
G37*
G36*
X667050Y594360D02*
X660280D01*
Y586090D01*
X667050D01*
Y594360D01*
D02*
G37*
G36*
X806000Y573370D02*
X797330D01*
X797468Y572676D01*
X798184Y571604D01*
X799256Y570888D01*
X800520Y570636D01*
X806000D01*
Y573370D01*
D02*
G37*
G36*
X700620Y618644D02*
X687120D01*
X685856Y618392D01*
X685822Y618370D01*
X683349D01*
X683073Y618035D01*
X621030D01*
X619746Y617779D01*
X618658Y617052D01*
X611038Y609432D01*
X610311Y608344D01*
X610056Y607060D01*
Y595630D01*
Y573585D01*
X585070D01*
Y585270D01*
X564990D01*
Y555190D01*
X585070D01*
Y566875D01*
X610056D01*
Y563880D01*
X610311Y562596D01*
X611038Y561508D01*
X618658Y553888D01*
X619746Y553161D01*
X621030Y552906D01*
X637240D01*
Y546720D01*
X659010D01*
Y556260D01*
Y565800D01*
X637240D01*
Y559614D01*
X622419D01*
X616764Y565270D01*
Y570230D01*
Y592276D01*
X635970D01*
Y586090D01*
X657740D01*
Y595630D01*
Y605170D01*
X635970D01*
Y598984D01*
X616764D01*
Y605671D01*
X622420Y611325D01*
X683012D01*
X683817Y610344D01*
X683817Y610340D01*
Y608940D01*
X684068Y607676D01*
X684426Y607140D01*
X684068Y606604D01*
X683817Y605340D01*
Y603940D01*
X684068Y602676D01*
X684426Y602140D01*
X684068Y601604D01*
X683817Y600340D01*
Y598940D01*
X684068Y597676D01*
X684426Y597140D01*
X684068Y596604D01*
X683817Y595340D01*
Y593940D01*
X683930Y593372D01*
X683620Y592994D01*
X682336Y592739D01*
X681248Y592012D01*
X675808Y586572D01*
X675081Y585484D01*
X674826Y584200D01*
Y538836D01*
X673062Y538105D01*
X671205Y536680D01*
X669780Y534823D01*
X668884Y532661D01*
X668578Y530340D01*
X668884Y528019D01*
X669780Y525857D01*
X671205Y524000D01*
X673062Y522575D01*
X675224Y521679D01*
X677545Y521373D01*
X679866Y521679D01*
X682028Y522575D01*
X683885Y524000D01*
X685310Y525857D01*
X686206Y528019D01*
X686512Y530340D01*
X686206Y532661D01*
X685310Y534823D01*
X683885Y536680D01*
X682028Y538105D01*
X681535Y538310D01*
Y582811D01*
X682609Y583885D01*
X683923Y583403D01*
X684068Y582676D01*
X684426Y582140D01*
X684068Y581604D01*
X683817Y580340D01*
Y578940D01*
X684068Y577676D01*
X684426Y577140D01*
X684068Y576604D01*
X683817Y575340D01*
Y573940D01*
X684068Y572676D01*
X684784Y571604D01*
X685856Y570888D01*
X687120Y570636D01*
X700620D01*
X701884Y570888D01*
X702956Y571604D01*
X703672Y572676D01*
X703923Y573940D01*
Y575340D01*
X703672Y576604D01*
X703314Y577140D01*
X703672Y577676D01*
X703923Y578940D01*
Y580340D01*
X703672Y581604D01*
X703314Y582140D01*
X703672Y582676D01*
X703923Y583940D01*
Y585340D01*
X703672Y586604D01*
X703314Y587140D01*
X703672Y587676D01*
X703923Y588940D01*
Y590340D01*
X703672Y591604D01*
X703314Y592140D01*
X703672Y592676D01*
X703923Y593940D01*
Y595340D01*
X703672Y596604D01*
X703314Y597140D01*
X703672Y597676D01*
X703923Y598940D01*
Y600340D01*
X703672Y601604D01*
X703314Y602140D01*
X703672Y602676D01*
X703923Y603940D01*
Y605340D01*
X703672Y606604D01*
X703314Y607140D01*
X703672Y607676D01*
X703923Y608940D01*
Y610340D01*
X703672Y611604D01*
X703314Y612140D01*
X703672Y612676D01*
X703923Y613940D01*
Y615340D01*
X703672Y616604D01*
X703314Y617140D01*
X703672Y617676D01*
X703810Y618370D01*
X701918D01*
X701884Y618392D01*
X700620Y618644D01*
D02*
G37*
G36*
X405130Y587977D02*
X402509Y587632D01*
X400067Y586620D01*
X397969Y585011D01*
X396360Y582913D01*
X395348Y580471D01*
X395003Y577850D01*
X395348Y575229D01*
X396360Y572787D01*
X397969Y570689D01*
X400067Y569080D01*
X402509Y568068D01*
X405130Y567723D01*
X407751Y568068D01*
X410193Y569080D01*
X412291Y570689D01*
X413900Y572787D01*
X414912Y575229D01*
X415257Y577850D01*
X414912Y580471D01*
X413900Y582913D01*
X412291Y585011D01*
X410193Y586620D01*
X407751Y587632D01*
X405130Y587977D01*
D02*
G37*
G36*
X788770Y565494D02*
X787370D01*
X786106Y565242D01*
X785570Y564884D01*
X785034Y565242D01*
X783770Y565494D01*
X782370D01*
X781106Y565242D01*
X780570Y564884D01*
X780034Y565242D01*
X778770Y565494D01*
X777370D01*
X776106Y565242D01*
X775570Y564884D01*
X775034Y565242D01*
X773770Y565494D01*
X772370D01*
X771106Y565242D01*
X770570Y564884D01*
X770034Y565242D01*
X768770Y565494D01*
X767370D01*
X766106Y565242D01*
X765570Y564884D01*
X765034Y565242D01*
X763770Y565494D01*
X762370D01*
X761106Y565242D01*
X760570Y564884D01*
X760034Y565242D01*
X758770Y565494D01*
X757370D01*
X756106Y565242D01*
X755570Y564884D01*
X755034Y565242D01*
X753770Y565494D01*
X752370D01*
X751106Y565242D01*
X750570Y564884D01*
X750034Y565242D01*
X748770Y565494D01*
X747370D01*
X746106Y565242D01*
X745570Y564884D01*
X745034Y565242D01*
X743770Y565494D01*
X742370D01*
X741106Y565242D01*
X740570Y564884D01*
X740034Y565242D01*
X739340Y565380D01*
Y563488D01*
X739317Y563454D01*
X739066Y562190D01*
Y555440D01*
Y548690D01*
X739317Y547426D01*
X739340Y547392D01*
Y545500D01*
X740034Y545638D01*
X740570Y545996D01*
X741106Y545638D01*
X742370Y545387D01*
X743770D01*
X745034Y545638D01*
X745570Y545996D01*
X746106Y545638D01*
X747370Y545387D01*
X748770D01*
X750034Y545638D01*
X750570Y545996D01*
X751106Y545638D01*
X752370Y545387D01*
X753770D01*
X755034Y545638D01*
X755570Y545996D01*
X756106Y545638D01*
X757370Y545387D01*
X758770D01*
X760034Y545638D01*
X760570Y545996D01*
X761106Y545638D01*
X762370Y545387D01*
X763770D01*
X765034Y545638D01*
X765570Y545996D01*
X766106Y545638D01*
X767370Y545387D01*
X768770D01*
X770034Y545638D01*
X770570Y545996D01*
X771106Y545638D01*
X772370Y545387D01*
X773770D01*
X775034Y545638D01*
X775570Y545996D01*
X776106Y545638D01*
X777370Y545387D01*
X778770D01*
X780034Y545638D01*
X780570Y545996D01*
X781106Y545638D01*
X782370Y545387D01*
X783770D01*
X785034Y545638D01*
X785570Y545996D01*
X786106Y545638D01*
X787370Y545387D01*
X788770D01*
X790034Y545638D01*
X791106Y546354D01*
X791822Y547426D01*
X792074Y548690D01*
Y562190D01*
X791822Y563454D01*
X791106Y564526D01*
X790034Y565242D01*
X788770Y565494D01*
D02*
G37*
G36*
X1002030Y577817D02*
X999409Y577472D01*
X996967Y576460D01*
X994869Y574851D01*
X993260Y572753D01*
X992248Y570311D01*
X991903Y567690D01*
X992248Y565069D01*
X993260Y562627D01*
X994869Y560529D01*
X996967Y558920D01*
X999409Y557908D01*
X1002030Y557563D01*
X1004651Y557908D01*
X1007093Y558920D01*
X1009191Y560529D01*
X1010800Y562627D01*
X1011812Y565069D01*
X1012157Y567690D01*
X1011812Y570311D01*
X1010800Y572753D01*
X1009191Y574851D01*
X1007093Y576460D01*
X1004651Y577472D01*
X1002030Y577817D01*
D02*
G37*
G36*
X668320Y565800D02*
X661550D01*
Y557530D01*
X668320D01*
Y565800D01*
D02*
G37*
G36*
Y554990D02*
X661550D01*
Y546720D01*
X668320D01*
Y554990D01*
D02*
G37*
G36*
X405130Y562577D02*
X402509Y562232D01*
X400067Y561220D01*
X397969Y559611D01*
X396360Y557513D01*
X395348Y555071D01*
X395003Y552450D01*
X395348Y549829D01*
X396360Y547387D01*
X397969Y545289D01*
X400067Y543680D01*
X402509Y542668D01*
X405130Y542323D01*
X407751Y542668D01*
X410193Y543680D01*
X412291Y545289D01*
X413900Y547387D01*
X414912Y549829D01*
X415257Y552450D01*
X414912Y555071D01*
X413900Y557513D01*
X412291Y559611D01*
X410193Y561220D01*
X407751Y562232D01*
X405130Y562577D01*
D02*
G37*
G36*
X1012070Y552330D02*
X991990D01*
Y532250D01*
X1012070D01*
Y552330D01*
D02*
G37*
G36*
X848780Y523890D02*
X842010D01*
Y515620D01*
X848780D01*
Y523890D01*
D02*
G37*
G36*
X801790Y522620D02*
X795020D01*
Y514350D01*
X801790D01*
Y522620D01*
D02*
G37*
G36*
X848780Y513080D02*
X842010D01*
Y504810D01*
X848780D01*
Y513080D01*
D02*
G37*
G36*
X801790Y511810D02*
X795020D01*
Y503540D01*
X801790D01*
Y511810D01*
D02*
G37*
G36*
X760639Y499110D02*
X753110D01*
Y491581D01*
X754161Y491719D01*
X756323Y492615D01*
X758180Y494040D01*
X759605Y495897D01*
X760501Y498059D01*
X760639Y499110D01*
D02*
G37*
G36*
X750570D02*
X743040D01*
X743179Y498059D01*
X744075Y495897D01*
X745500Y494040D01*
X747357Y492615D01*
X749519Y491719D01*
X750570Y491581D01*
Y499110D01*
D02*
G37*
G36*
X848660Y495950D02*
X841890D01*
Y487680D01*
X848660D01*
Y495950D01*
D02*
G37*
G36*
X801550Y494680D02*
X794780D01*
Y486410D01*
X801550D01*
Y494680D01*
D02*
G37*
G36*
X848660Y485140D02*
X841890D01*
Y476870D01*
X848660D01*
Y485140D01*
D02*
G37*
G36*
X801550Y483870D02*
X794780D01*
Y475600D01*
X801550D01*
Y483870D01*
D02*
G37*
G36*
X513620Y479950D02*
X505350D01*
Y472680D01*
X513620D01*
Y479950D01*
D02*
G37*
G36*
X502810D02*
X494540D01*
Y472680D01*
X502810D01*
Y479950D01*
D02*
G37*
G36*
X629031Y470510D02*
X613918D01*
Y469445D01*
X589280D01*
X587996Y469189D01*
X586908Y468462D01*
X579288Y460842D01*
X578561Y459754D01*
X578306Y458470D01*
Y437574D01*
X554370D01*
Y442260D01*
X535290D01*
Y426180D01*
Y420490D01*
X554370D01*
Y426180D01*
Y430866D01*
X578306D01*
Y403860D01*
X578561Y402576D01*
X579288Y401488D01*
X601166Y379610D01*
Y361830D01*
X594480D01*
Y341750D01*
X614560D01*
Y361830D01*
X607874D01*
Y381000D01*
Y441841D01*
X609109Y443075D01*
X613918D01*
Y441350D01*
X629031D01*
Y450850D01*
Y454660D01*
X613918D01*
Y449784D01*
X607720D01*
X606436Y449529D01*
X605348Y448802D01*
X602148Y445602D01*
X601421Y444514D01*
X601166Y443230D01*
Y390758D01*
X599992Y390272D01*
X585014Y405249D01*
Y434220D01*
Y457080D01*
X590670Y462735D01*
X613918D01*
Y457200D01*
X629031D01*
Y460350D01*
Y470510D01*
D02*
G37*
G36*
X905510Y626187D02*
X903189Y625881D01*
X901027Y624985D01*
X899170Y623560D01*
X897745Y621703D01*
X896849Y619541D01*
X896543Y617220D01*
X896849Y614899D01*
X897745Y612737D01*
X899170Y610880D01*
X901027Y609455D01*
X903189Y608559D01*
X905510Y608253D01*
X907831Y608559D01*
X908720Y608927D01*
X909775Y608221D01*
Y597020D01*
X896788Y584032D01*
X896061Y582944D01*
X895806Y581660D01*
Y458590D01*
X879990Y442775D01*
X876184D01*
X875969Y443032D01*
X876132Y444668D01*
X892642Y461178D01*
X893369Y462266D01*
X893624Y463550D01*
Y591207D01*
X894753Y591675D01*
X896610Y593100D01*
X898035Y594957D01*
X898931Y597119D01*
X899237Y599440D01*
X898931Y601761D01*
X898035Y603923D01*
X896610Y605780D01*
X894753Y607205D01*
X892591Y608101D01*
X890270Y608407D01*
X887949Y608101D01*
X885787Y607205D01*
X883930Y605780D01*
X882505Y603923D01*
X881609Y601761D01*
X881303Y599440D01*
X881609Y597119D01*
X882505Y594957D01*
X883930Y593100D01*
X885787Y591675D01*
X886916Y591207D01*
Y464939D01*
X872371Y450395D01*
X831850D01*
X830566Y450139D01*
X829478Y449412D01*
X778678Y398612D01*
X777951Y397524D01*
X777695Y396240D01*
Y342634D01*
X776425Y342108D01*
X764372Y354162D01*
X763284Y354889D01*
X762000Y355145D01*
X641938D01*
X641230Y356853D01*
X639621Y358951D01*
X637523Y360560D01*
X635081Y361572D01*
X632460Y361917D01*
X629839Y361572D01*
X627397Y360560D01*
X625299Y358951D01*
X623690Y356853D01*
X622678Y354411D01*
X622333Y351790D01*
X622678Y349169D01*
X623690Y346727D01*
X625299Y344629D01*
X627397Y343020D01*
X629839Y342008D01*
X632460Y341663D01*
X635081Y342008D01*
X637523Y343020D01*
X639621Y344629D01*
X641230Y346727D01*
X641938Y348436D01*
X760611D01*
X771196Y337851D01*
Y316110D01*
X769760D01*
Y316110D01*
X768490Y315847D01*
X767149Y316403D01*
X765050Y316679D01*
X760820D01*
Y308570D01*
Y300461D01*
X765050D01*
X767149Y300737D01*
X768490Y301292D01*
X769760Y300543D01*
Y296030D01*
X779353D01*
X779606Y294760D01*
X777995Y294093D01*
X776316Y292804D01*
X775027Y291125D01*
X774217Y289169D01*
X774108Y288340D01*
X800992D01*
X800883Y289169D01*
X800073Y291125D01*
X798784Y292804D01*
X797105Y294093D01*
X795494Y294760D01*
X795747Y296030D01*
X799280D01*
Y306070D01*
Y316110D01*
X797404D01*
Y320221D01*
X806570Y329385D01*
X1045210D01*
X1046494Y329641D01*
X1047582Y330368D01*
X1057742Y340528D01*
X1058469Y341616D01*
X1058725Y342900D01*
Y353742D01*
X1060433Y354450D01*
X1062531Y356059D01*
X1064140Y358157D01*
X1065152Y360599D01*
X1065497Y363220D01*
X1065152Y365841D01*
X1064140Y368283D01*
X1062531Y370381D01*
X1060433Y371990D01*
X1057991Y373002D01*
X1055370Y373347D01*
X1052749Y373002D01*
X1050307Y371990D01*
X1048209Y370381D01*
X1046600Y368283D01*
X1045588Y365841D01*
X1045243Y363220D01*
X1045588Y360599D01*
X1046600Y358157D01*
X1048209Y356059D01*
X1050307Y354450D01*
X1052016Y353742D01*
Y344290D01*
X1043820Y336095D01*
X805180D01*
X803896Y335839D01*
X802808Y335112D01*
X792175Y324478D01*
X790904Y325004D01*
Y392461D01*
X834510Y436065D01*
X881380D01*
X882664Y436321D01*
X883752Y437048D01*
X901532Y454828D01*
X902259Y455916D01*
X902514Y457200D01*
Y580271D01*
X915502Y593258D01*
X916229Y594346D01*
X916485Y595630D01*
Y612140D01*
X916229Y613424D01*
X915502Y614512D01*
X914281Y615733D01*
X914477Y617220D01*
X914171Y619541D01*
X913275Y621703D01*
X911850Y623560D01*
X909993Y624985D01*
X907831Y625881D01*
X905510Y626187D01*
D02*
G37*
G36*
X656082Y451510D02*
X640969D01*
Y441350D01*
X656082D01*
Y451510D01*
D02*
G37*
G36*
X721360Y448960D02*
X714590D01*
Y440690D01*
X721360D01*
Y448960D01*
D02*
G37*
G36*
Y438150D02*
X714590D01*
Y429880D01*
X721360D01*
Y438150D01*
D02*
G37*
G36*
X384810Y427900D02*
Y420370D01*
X392340D01*
X392201Y421421D01*
X391305Y423583D01*
X389880Y425440D01*
X388023Y426865D01*
X385861Y427761D01*
X384810Y427900D01*
D02*
G37*
G36*
X382270D02*
X381219Y427761D01*
X379057Y426865D01*
X377200Y425440D01*
X375775Y423583D01*
X374879Y421421D01*
X374740Y420370D01*
X382270D01*
Y427900D01*
D02*
G37*
G36*
X554370Y417950D02*
X546100D01*
Y411180D01*
X554370D01*
Y417950D01*
D02*
G37*
G36*
X543560D02*
X535290D01*
Y411180D01*
X543560D01*
Y417950D01*
D02*
G37*
G36*
X392340Y417830D02*
X384810D01*
Y410300D01*
X385861Y410439D01*
X388023Y411335D01*
X389880Y412760D01*
X391305Y414617D01*
X392201Y416779D01*
X392340Y417830D01*
D02*
G37*
G36*
X382270D02*
X374740D01*
X374879Y416779D01*
X375775Y414617D01*
X377200Y412760D01*
X379057Y411335D01*
X381219Y410439D01*
X382270Y410300D01*
Y417830D01*
D02*
G37*
G36*
X949960Y374449D02*
Y365760D01*
X958649D01*
X958472Y367111D01*
X957460Y369553D01*
X955851Y371651D01*
X953753Y373260D01*
X951311Y374272D01*
X949960Y374449D01*
D02*
G37*
G36*
X947420D02*
X946069Y374272D01*
X943627Y373260D01*
X941529Y371651D01*
X939920Y369553D01*
X938908Y367111D01*
X938731Y365760D01*
X947420D01*
Y374449D01*
D02*
G37*
G36*
X958649Y363220D02*
X949960D01*
Y354531D01*
X951311Y354708D01*
X953753Y355720D01*
X955851Y357329D01*
X957460Y359427D01*
X958472Y361869D01*
X958649Y363220D01*
D02*
G37*
G36*
X947420D02*
X938731D01*
X938908Y361869D01*
X939920Y359427D01*
X941529Y357329D01*
X943627Y355720D01*
X946069Y354708D01*
X947420Y354531D01*
Y363220D01*
D02*
G37*
G36*
X877870Y725170D02*
X871100D01*
Y716900D01*
X875597D01*
X876083Y715727D01*
X874680Y714324D01*
X780183D01*
X778900Y714069D01*
X777811Y713342D01*
X765698Y701228D01*
X764971Y700140D01*
X764715Y698857D01*
Y679669D01*
X764340Y679361D01*
Y676888D01*
X764317Y676854D01*
X764066Y675590D01*
Y668840D01*
Y662090D01*
X764317Y660826D01*
X764340Y660792D01*
Y658900D01*
X765034Y659038D01*
X765570Y659396D01*
X766106Y659038D01*
X767370Y658786D01*
X768770D01*
X770034Y659038D01*
X770570Y659396D01*
X771106Y659038D01*
X772370Y658786D01*
X773770D01*
X775034Y659038D01*
X775570Y659396D01*
X776106Y659038D01*
X777370Y658786D01*
X778770D01*
X780034Y659038D01*
X780570Y659396D01*
X781106Y659038D01*
X782370Y658786D01*
X783770D01*
X785034Y659038D01*
X785570Y659396D01*
X786106Y659038D01*
X787370Y658786D01*
X788770D01*
X790034Y659038D01*
X791106Y659754D01*
X791822Y660826D01*
X792074Y662090D01*
Y675590D01*
X791822Y676854D01*
X791106Y677926D01*
X790034Y678642D01*
X788770Y678894D01*
X787370D01*
X786106Y678642D01*
X785570Y678284D01*
X785034Y678642D01*
X783770Y678894D01*
X782370D01*
X781106Y678642D01*
X780570Y678284D01*
X780034Y678642D01*
X778770Y678894D01*
X777370D01*
X776424Y679669D01*
Y694211D01*
X783709Y701496D01*
X880767D01*
X881235Y700367D01*
X882660Y698510D01*
X884517Y697085D01*
X886679Y696189D01*
X889000Y695883D01*
X891321Y696189D01*
X892450Y696656D01*
X919936Y669171D01*
Y417830D01*
Y374530D01*
X913250D01*
Y354450D01*
X933330D01*
Y374530D01*
X926645D01*
Y414476D01*
X945500D01*
Y410450D01*
X964580D01*
Y427180D01*
X964580Y427530D01*
Y428450D01*
X964580Y428800D01*
Y445530D01*
X958394D01*
Y621687D01*
X959523Y622155D01*
X961380Y623580D01*
X962805Y625437D01*
X963701Y627599D01*
X964007Y629920D01*
X963701Y632241D01*
X962805Y634403D01*
X961380Y636260D01*
X959523Y637685D01*
X957361Y638581D01*
X955040Y638887D01*
X952719Y638581D01*
X950557Y637685D01*
X948700Y636260D01*
X947275Y634403D01*
X946379Y632241D01*
X946073Y629920D01*
X946379Y627599D01*
X947275Y625437D01*
X948700Y623580D01*
X950557Y622155D01*
X951686Y621687D01*
Y445530D01*
X945500D01*
Y428800D01*
X945500Y428450D01*
Y427530D01*
X945500Y427180D01*
Y421185D01*
X926645D01*
Y670560D01*
X926389Y671844D01*
X925662Y672932D01*
X897194Y701400D01*
X897661Y702529D01*
X897967Y704850D01*
X897661Y707171D01*
X896765Y709333D01*
X895340Y711190D01*
X894734Y711656D01*
X895165Y712925D01*
X910471D01*
X970735Y652661D01*
Y494030D01*
X970991Y492746D01*
X971718Y491658D01*
X1026616Y436760D01*
Y373260D01*
X1019930D01*
Y353180D01*
X1040010D01*
Y373260D01*
X1033325D01*
Y438150D01*
X1033069Y439434D01*
X1032342Y440522D01*
X977445Y495420D01*
Y654050D01*
X977189Y655334D01*
X976462Y656422D01*
X914232Y718652D01*
X913144Y719379D01*
X911860Y719634D01*
X881380D01*
X880096Y719379D01*
X879140Y718740D01*
X878257Y718963D01*
X877870Y719123D01*
Y725170D01*
D02*
G37*
G36*
X642500Y336430D02*
X633730D01*
Y327660D01*
X642500D01*
Y336430D01*
D02*
G37*
G36*
X605790Y336349D02*
Y327660D01*
X614479D01*
X614302Y329011D01*
X613290Y331453D01*
X611681Y333551D01*
X609583Y335160D01*
X607141Y336172D01*
X605790Y336349D01*
D02*
G37*
G36*
X603250D02*
X601899Y336172D01*
X599457Y335160D01*
X597359Y333551D01*
X595750Y331453D01*
X594738Y329011D01*
X594561Y327660D01*
X603250D01*
Y336349D01*
D02*
G37*
G36*
X631190Y336430D02*
X622420D01*
Y327660D01*
X631190D01*
Y336430D01*
D02*
G37*
G36*
X614479Y325120D02*
X605790D01*
Y316431D01*
X607141Y316608D01*
X609583Y317620D01*
X611681Y319229D01*
X613290Y321327D01*
X614302Y323769D01*
X614479Y325120D01*
D02*
G37*
G36*
X603250D02*
X594561D01*
X594738Y323769D01*
X595750Y321327D01*
X597359Y319229D01*
X599457Y317620D01*
X601899Y316608D01*
X603250Y316431D01*
Y325120D01*
D02*
G37*
G36*
X642500D02*
X633730D01*
Y316350D01*
X642500D01*
Y325120D01*
D02*
G37*
G36*
X631190D02*
X622420D01*
Y316350D01*
X631190D01*
Y325120D01*
D02*
G37*
G36*
X814280Y316679D02*
X810050D01*
X807951Y316403D01*
X806610Y315847D01*
X805340Y316110D01*
Y316110D01*
X801820D01*
Y306070D01*
Y296030D01*
X805340D01*
Y300543D01*
X806610Y301292D01*
X807951Y300737D01*
X810050Y300461D01*
X814280D01*
Y308570D01*
Y316679D01*
D02*
G37*
G36*
X821050D02*
X816820D01*
Y309840D01*
X828992D01*
X828883Y310669D01*
X828073Y312625D01*
X826784Y314304D01*
X825105Y315593D01*
X823149Y316403D01*
X821050Y316679D01*
D02*
G37*
G36*
X758280D02*
X754050D01*
X751951Y316403D01*
X749995Y315593D01*
X748316Y314304D01*
X747027Y312625D01*
X746217Y310669D01*
X746108Y309840D01*
X758280D01*
Y316679D01*
D02*
G37*
G36*
X828992Y307300D02*
X816820D01*
Y300461D01*
X821050D01*
X823149Y300737D01*
X825105Y301547D01*
X826784Y302836D01*
X828073Y304515D01*
X828883Y306471D01*
X828992Y307300D01*
D02*
G37*
G36*
X758280D02*
X746108D01*
X746217Y306471D01*
X747027Y304515D01*
X748316Y302836D01*
X749995Y301547D01*
X751951Y300737D01*
X754050Y300461D01*
X758280D01*
Y307300D01*
D02*
G37*
G36*
X800992Y285800D02*
X788820D01*
Y278961D01*
X793050D01*
X795149Y279237D01*
X797105Y280047D01*
X798784Y281336D01*
X800073Y283015D01*
X800883Y284971D01*
X800992Y285800D01*
D02*
G37*
G36*
X786280D02*
X774108D01*
X774217Y284971D01*
X775027Y283015D01*
X776316Y281336D01*
X777995Y280047D01*
X779951Y279237D01*
X782050Y278961D01*
X786280D01*
Y285800D01*
D02*
G37*
%LPD*%
G36*
X852626Y1001910D02*
Y767895D01*
X762000D01*
X760716Y767639D01*
X759628Y766912D01*
X745698Y752982D01*
X744971Y751894D01*
X744716Y750610D01*
Y732348D01*
X743542Y731862D01*
X735162Y740242D01*
X734074Y740969D01*
X732790Y741225D01*
X701160D01*
X694234Y748149D01*
Y970161D01*
X710050Y985975D01*
X723781D01*
X733245Y976510D01*
Y958850D01*
X730377D01*
Y925830D01*
X742823D01*
Y925830D01*
X743077D01*
Y925830D01*
X754507D01*
X755523Y925830D01*
X756793Y925830D01*
X767207D01*
X768223Y925830D01*
X769493Y925830D01*
X779907D01*
X780923Y925830D01*
X782193Y925830D01*
X793623D01*
Y958850D01*
X790754D01*
Y979051D01*
X796410Y984706D01*
X817760D01*
X827225Y975240D01*
Y879453D01*
X826097Y878985D01*
X824240Y877560D01*
X822815Y875703D01*
X821919Y873541D01*
X821613Y871220D01*
X821919Y868899D01*
X822815Y866737D01*
X824240Y864880D01*
X826097Y863455D01*
X828259Y862559D01*
X830580Y862253D01*
X832901Y862559D01*
X835063Y863455D01*
X836920Y864880D01*
X838345Y866737D01*
X839241Y868899D01*
X839547Y871220D01*
X839241Y873541D01*
X838345Y875703D01*
X836920Y877560D01*
X835063Y878985D01*
X833934Y879453D01*
Y976630D01*
X833679Y977914D01*
X832952Y979002D01*
X821522Y990432D01*
X820434Y991159D01*
X819150Y991414D01*
X795020D01*
X793736Y991159D01*
X792648Y990432D01*
X785028Y982812D01*
X784301Y981724D01*
X784045Y980440D01*
Y959748D01*
X783148Y958850D01*
X781177Y958850D01*
X779907Y958850D01*
X769493D01*
X768477Y958850D01*
X767207Y958850D01*
X756793D01*
X755777Y958850D01*
X754507Y958850D01*
X752654D01*
Y1010800D01*
X754500Y1012645D01*
X841890D01*
X852626Y1001910D01*
D02*
G37*
%LPC*%
G36*
X781177Y918210D02*
X779907Y918210D01*
X769493D01*
X768477Y918210D01*
X767207Y918210D01*
X763270D01*
Y901700D01*
Y885190D01*
X767207D01*
X768223Y885190D01*
X769493Y885190D01*
X779907D01*
X780923Y885190D01*
X782193Y885190D01*
X793623D01*
Y918210D01*
X782193D01*
X781177Y918210D01*
D02*
G37*
G36*
X755777D02*
X754507Y918210D01*
X750570D01*
Y901700D01*
Y885190D01*
X754507D01*
X755523Y885190D01*
X756793Y885190D01*
X760730D01*
Y901700D01*
Y918210D01*
X756793D01*
X755777Y918210D01*
D02*
G37*
G36*
X743077D02*
X741807Y918210D01*
X730377D01*
Y885190D01*
X734516D01*
Y842010D01*
X734771Y840726D01*
X735498Y839638D01*
X758358Y816778D01*
X759446Y816051D01*
X760730Y815796D01*
X762682D01*
X763390Y814087D01*
X764999Y811989D01*
X767097Y810380D01*
X769539Y809368D01*
X772160Y809023D01*
X774781Y809368D01*
X777223Y810380D01*
X779321Y811989D01*
X780930Y814087D01*
X781942Y816529D01*
X782287Y819150D01*
X781942Y821771D01*
X780930Y824213D01*
X779321Y826311D01*
X777223Y827920D01*
X774781Y828932D01*
X772160Y829277D01*
X769539Y828932D01*
X767097Y827920D01*
X764999Y826311D01*
X763390Y824213D01*
X763036Y823358D01*
X761545Y823079D01*
X741225Y843400D01*
Y884292D01*
X742122Y885190D01*
X742823D01*
X744093Y885190D01*
X748030D01*
Y901700D01*
Y918210D01*
X744093D01*
X743077Y918210D01*
D02*
G37*
G36*
X756920Y859699D02*
Y852170D01*
X764449D01*
X764311Y853221D01*
X763415Y855383D01*
X761990Y857240D01*
X760133Y858665D01*
X757971Y859561D01*
X756920Y859699D01*
D02*
G37*
G36*
X754380D02*
X753329Y859561D01*
X751167Y858665D01*
X749310Y857240D01*
X747885Y855383D01*
X746989Y853221D01*
X746851Y852170D01*
X754380D01*
Y859699D01*
D02*
G37*
G36*
X764449Y849630D02*
X756920D01*
Y842101D01*
X757971Y842239D01*
X760133Y843135D01*
X761990Y844560D01*
X763415Y846417D01*
X764311Y848579D01*
X764449Y849630D01*
D02*
G37*
G36*
X754380D02*
X746851D01*
X746989Y848579D01*
X747885Y846417D01*
X749310Y844560D01*
X751167Y843135D01*
X753329Y842239D01*
X754380Y842101D01*
Y849630D01*
D02*
G37*
G36*
X782200Y803790D02*
X762120D01*
Y783710D01*
X782200D01*
Y803790D01*
D02*
G37*
G36*
X712470Y780959D02*
Y773430D01*
X719999D01*
X719861Y774481D01*
X718965Y776643D01*
X717540Y778500D01*
X715683Y779925D01*
X713521Y780821D01*
X712470Y780959D01*
D02*
G37*
G36*
X709930D02*
X708879Y780821D01*
X706717Y779925D01*
X704860Y778500D01*
X703435Y776643D01*
X702539Y774481D01*
X702401Y773430D01*
X709930D01*
Y780959D01*
D02*
G37*
G36*
X719999Y770890D02*
X712470D01*
Y763361D01*
X713521Y763499D01*
X715683Y764395D01*
X717540Y765820D01*
X718965Y767677D01*
X719861Y769839D01*
X719999Y770890D01*
D02*
G37*
G36*
X709930D02*
X702401D01*
X702539Y769839D01*
X703435Y767677D01*
X704860Y765820D01*
X706717Y764395D01*
X708879Y763499D01*
X709930Y763361D01*
Y770890D01*
D02*
G37*
%LPD*%
D15*
X981710Y786130D02*
Y805180D01*
X922020Y726440D02*
X981710Y786130D01*
X869830Y726440D02*
X922020D01*
X732790Y513080D02*
X778750D01*
X732790Y555160D02*
X733070Y555440D01*
X732790Y513080D02*
Y555160D01*
Y486410D02*
Y513080D01*
X755650Y850900D02*
X762000Y857250D01*
Y901700D01*
X755650Y850900D02*
Y852120D01*
X750179Y857591D02*
X755650Y852120D01*
X750179Y857591D02*
Y868680D01*
X749300Y869559D02*
Y901700D01*
Y869559D02*
X750179Y868680D01*
X778510Y715010D02*
X868951D01*
X869830Y715889D02*
Y726440D01*
X868951Y715010D02*
X869830Y715889D01*
X768070Y698857D02*
X780183Y710970D01*
X832940Y719050D02*
X840330Y726440D01*
X780183Y710970D02*
X876070D01*
X776837Y719050D02*
X832940D01*
X876070Y710970D02*
X881380Y716280D01*
X758190Y700403D02*
X776837Y719050D01*
X758190Y668960D02*
Y700403D01*
X763070Y699570D02*
X778510Y715010D01*
X768070Y668840D02*
Y698857D01*
X763070Y668840D02*
Y699570D01*
X782320Y704850D02*
X889000D01*
X773070Y668840D02*
Y695600D01*
X782320Y704850D01*
X679450Y439420D02*
X722630D01*
X621474Y455930D02*
X662940D01*
X679450Y439420D01*
X738070Y531060D02*
Y555440D01*
X737870Y530860D02*
X738070Y531060D01*
X801370Y530860D02*
X807270Y536760D01*
Y574640D01*
X1029970Y363220D02*
Y438150D01*
X805180Y332740D02*
X1045210D01*
X1055370Y342900D01*
X794050Y321610D02*
X805180Y332740D01*
X794050Y306070D02*
Y321610D01*
X974090Y494030D02*
Y654050D01*
Y494030D02*
X1029970Y438150D01*
X911860Y716280D02*
X974090Y654050D01*
X881380Y716280D02*
X911860D01*
X1055370Y342900D02*
Y363220D01*
X604520Y381000D02*
Y443230D01*
Y351790D02*
Y381000D01*
X581660Y403860D02*
Y434220D01*
Y403860D02*
X604520Y381000D01*
X581660Y434220D02*
Y458470D01*
X589280Y466090D02*
X620815D01*
X581660Y458470D02*
X589280Y466090D01*
X544830Y434220D02*
X581660D01*
X821690Y542290D02*
Y579330D01*
Y518400D02*
Y542290D01*
X811530Y534670D02*
X819150Y542290D01*
X821690D01*
X811530Y488950D02*
Y534670D01*
X814070Y486410D02*
X825620D01*
X811530Y488950D02*
X814070Y486410D01*
X732790Y465430D02*
Y486410D01*
X734060Y485140D02*
X778510D01*
X732790Y486410D02*
X734060Y485140D01*
X821690Y579330D02*
X826560D01*
X807580D02*
X821690D01*
Y518400D02*
X825740Y514350D01*
X850704Y557530D02*
X854710D01*
X846699D02*
X850704D01*
X845820Y558409D02*
Y562610D01*
Y558409D02*
X846699Y557530D01*
X840740Y567690D02*
X845820Y562610D01*
X834390Y586740D02*
X840740Y580390D01*
Y567690D02*
Y580390D01*
X820420Y604520D02*
X834390Y590550D01*
Y586740D02*
Y590550D01*
X833120Y551180D02*
X845820Y538480D01*
X833120Y551180D02*
Y572770D01*
X826560Y579330D02*
X833120Y572770D01*
X845820Y538480D02*
X869950D01*
X820420Y604520D02*
Y622300D01*
X807270Y624640D02*
X818080D01*
X820420Y622300D01*
X825500Y607060D02*
Y626110D01*
Y607060D02*
X853440Y579120D01*
X821970Y629640D02*
X825500Y626110D01*
X807270Y629640D02*
X821970D01*
X869950Y478790D02*
Y538480D01*
Y636270D01*
X889000D01*
X856590Y465430D02*
X869950Y478790D01*
X863600Y636270D02*
X869950D01*
X807270Y579640D02*
X807580Y579330D01*
X721360Y477520D02*
X726440Y482600D01*
X717550Y477520D02*
X721360D01*
X726440Y482600D02*
Y510540D01*
X723070Y513910D02*
Y555440D01*
Y513910D02*
X726440Y510540D01*
X718070Y503440D02*
Y555440D01*
X713740Y499110D02*
X718070Y503440D01*
X677545Y530340D02*
X678180Y530975D01*
Y584200D01*
X713070Y527650D02*
Y555440D01*
X706120Y520700D02*
X713070Y527650D01*
X678180Y584200D02*
X683620Y589640D01*
X693870D01*
X605790Y500380D02*
X607060Y499110D01*
X605790Y500380D02*
Y527050D01*
X598170Y534670D02*
X605790Y527050D01*
X677820Y634640D02*
X693870D01*
X666750Y623570D02*
X677820Y634640D01*
X617220Y623570D02*
X666750D01*
X599440Y605790D02*
X617220Y623570D01*
X530860Y612140D02*
X533170Y609830D01*
X595860D02*
X615950Y629920D01*
X533170Y609830D02*
X595860D01*
X520700Y605790D02*
X599440D01*
X505460Y621030D02*
X520700Y605790D01*
X521970Y622300D02*
Y645160D01*
Y622300D02*
X530860Y613410D01*
Y612140D02*
Y613410D01*
X505460Y621030D02*
Y635000D01*
X405130Y654050D02*
X486410D01*
X505460Y635000D01*
X666360Y629920D02*
X676300Y639860D01*
X615950Y629920D02*
X666360D01*
X693650Y639860D02*
X693870Y639640D01*
X676300Y639860D02*
X693650D01*
X405130Y679450D02*
X487680D01*
X521970Y645160D01*
X758070Y668840D02*
X758190Y668960D01*
X840330Y726440D02*
X854830D01*
X613410Y595630D02*
Y607060D01*
Y570230D02*
Y595630D01*
X613410Y595630D02*
X644010D01*
X613410Y595630D02*
X613410Y595630D01*
X621030Y614680D02*
X693830D01*
X613410Y607060D02*
X621030Y614680D01*
X575030Y570230D02*
X613410D01*
Y563880D02*
Y570230D01*
X621030Y556260D02*
X645280D01*
X613410Y563880D02*
X621030Y556260D01*
X676910Y465430D02*
X732790D01*
X547370Y534670D02*
X598170D01*
X540030Y542010D02*
Y570230D01*
Y542010D02*
X547370Y534670D01*
X693830Y614680D02*
X693870Y614640D01*
X676910Y465430D02*
Y490220D01*
X607060Y499110D02*
X668020D01*
X676910Y490220D01*
X762000Y351790D02*
X774550Y339240D01*
X632460Y351790D02*
X762000D01*
X774550Y306070D02*
Y339240D01*
X787550Y306070D02*
Y393850D01*
X781050Y306070D02*
Y396240D01*
X504080Y499220D02*
X588950D01*
X589060Y499110D01*
X648525Y465430D02*
X676910D01*
X955040Y436990D02*
Y629920D01*
X955040Y629920D02*
X955040Y629920D01*
X923290Y417830D02*
Y670560D01*
Y364490D02*
Y417830D01*
X953880D02*
X955040Y418990D01*
X923290Y417830D02*
X953880D01*
X737870Y465430D02*
X856590D01*
X732790D02*
X737870D01*
X737630Y439420D02*
Y465190D01*
X737870Y465430D01*
X905510Y619760D02*
X913130Y612140D01*
X840740Y623570D02*
X843280Y621030D01*
X853440D01*
X840740Y623570D02*
Y629920D01*
X807270Y639640D02*
X831020D01*
X840740Y629920D01*
X842010Y600710D02*
X854710D01*
X831850Y610870D02*
X842010Y600710D01*
X831850Y610870D02*
Y629920D01*
X827130Y634640D02*
X831850Y629920D01*
X913130Y595630D02*
Y612140D01*
X899160Y457200D02*
Y581660D01*
X913130Y595630D01*
X889000Y636270D02*
X889635Y636905D01*
X881380Y439420D02*
X899160Y457200D01*
X833120Y439420D02*
X881380D01*
X787550Y393850D02*
X833120Y439420D01*
X890270Y599440D02*
Y601980D01*
Y463550D02*
Y599440D01*
X807270Y634640D02*
X827130D01*
X807270Y649640D02*
X850230D01*
X863600Y636270D01*
X873760Y447040D02*
X890270Y463550D01*
X831850Y447040D02*
X873760D01*
X781050Y396240D02*
X831850Y447040D01*
X760730Y819150D02*
X772160D01*
X737870Y842010D02*
X760730Y819150D01*
X736600Y901700D02*
X737870Y900430D01*
Y842010D02*
Y900430D01*
X787400Y942340D02*
Y980440D01*
X795020Y988060D01*
X819150D01*
X830580Y976630D01*
X749300Y942340D02*
Y1012190D01*
X753110Y1016000D01*
X843280D01*
X855980Y1003300D01*
Y765419D02*
Y1003300D01*
X736600Y942340D02*
Y977900D01*
X725170Y989330D02*
X736600Y977900D01*
X690880Y971550D02*
X708660Y989330D01*
X725170D01*
X690880Y746760D02*
Y971550D01*
X753070Y707350D02*
X779780Y734060D01*
X826770D01*
X753070Y668840D02*
Y707350D01*
X748070Y668840D02*
Y750610D01*
X762000Y764540D02*
X855101D01*
X748070Y750610D02*
X762000Y764540D01*
X855101D02*
X855980Y765419D01*
X889000Y704850D02*
X923290Y670560D01*
X830580Y871220D02*
Y976630D01*
X743070Y668840D02*
Y727590D01*
X732790Y737870D02*
X743070Y727590D01*
X690880Y746760D02*
X699770Y737870D01*
X732790D01*
X668770Y644640D02*
X693870D01*
X664210Y640080D02*
X668770Y644640D01*
X632460Y640080D02*
X664210D01*
X693270Y650240D02*
X693870Y649640D01*
X666750Y650240D02*
X693270D01*
X632460Y654680D02*
X662310D01*
X666750Y650240D01*
X610870Y640080D02*
X632460D01*
X607060Y636270D02*
X610870Y640080D01*
X607060Y629920D02*
Y636270D01*
X576460Y624840D02*
X601980D01*
X607060Y629920D01*
X631820Y655320D02*
X632460Y654680D01*
X605790Y655320D02*
X631820D01*
X575190Y661670D02*
X599440D01*
X605790Y655320D01*
X620815Y466090D02*
X621474Y465430D01*
X607720Y446430D02*
X621474D01*
X604520Y443230D02*
X607720Y446430D01*
D17*
X787400Y942340D02*
D03*
Y901700D02*
D03*
X774700Y942340D02*
D03*
Y901700D02*
D03*
X762000Y942340D02*
D03*
Y901700D02*
D03*
X749300Y942340D02*
D03*
Y901700D02*
D03*
X736600Y942340D02*
D03*
Y901700D02*
D03*
D18*
X713070Y668840D02*
D03*
X718070D02*
D03*
X723070D02*
D03*
X728070D02*
D03*
X733070D02*
D03*
X738070D02*
D03*
X743070D02*
D03*
X748070D02*
D03*
X753070D02*
D03*
X758070D02*
D03*
X763070D02*
D03*
X768070D02*
D03*
X773070D02*
D03*
X778070D02*
D03*
X783070D02*
D03*
X788070D02*
D03*
Y555440D02*
D03*
X783070D02*
D03*
X778070D02*
D03*
X773070D02*
D03*
X768070D02*
D03*
X763070D02*
D03*
X758070D02*
D03*
X753070D02*
D03*
X748070D02*
D03*
X743070D02*
D03*
X738070D02*
D03*
X733070D02*
D03*
X728070D02*
D03*
X723070D02*
D03*
X718070D02*
D03*
X713070D02*
D03*
D19*
X807270Y649640D02*
D03*
Y644640D02*
D03*
Y639640D02*
D03*
Y634640D02*
D03*
Y629640D02*
D03*
Y624640D02*
D03*
Y619640D02*
D03*
Y614640D02*
D03*
Y609640D02*
D03*
Y604640D02*
D03*
Y599640D02*
D03*
Y594640D02*
D03*
Y589640D02*
D03*
Y584640D02*
D03*
Y579640D02*
D03*
Y574640D02*
D03*
X693870D02*
D03*
Y579640D02*
D03*
Y584640D02*
D03*
Y589640D02*
D03*
Y594640D02*
D03*
Y599640D02*
D03*
Y604640D02*
D03*
Y609640D02*
D03*
Y614640D02*
D03*
Y619640D02*
D03*
Y624640D02*
D03*
Y629640D02*
D03*
Y634640D02*
D03*
Y639640D02*
D03*
Y644640D02*
D03*
Y649640D02*
D03*
D20*
X793510Y485140D02*
D03*
X778510D02*
D03*
X793750Y513080D02*
D03*
X778750D02*
D03*
X840740Y514350D02*
D03*
X825740D02*
D03*
X840620Y486410D02*
D03*
X825620D02*
D03*
X722630Y439420D02*
D03*
X737630D02*
D03*
X561460Y624840D02*
D03*
X576460D02*
D03*
X560190Y661670D02*
D03*
X575190D02*
D03*
X869830Y726440D02*
D03*
X854830D02*
D03*
X659010Y595630D02*
D03*
X644010D02*
D03*
X660280Y556260D02*
D03*
X645280D02*
D03*
D21*
X607060Y499110D02*
D03*
X589060D02*
D03*
D22*
X955040Y436990D02*
D03*
Y418990D02*
D03*
X504080Y499220D02*
D03*
Y481220D02*
D03*
D23*
X544830Y419220D02*
D03*
Y434220D02*
D03*
D24*
X648525Y465430D02*
D03*
Y446430D02*
D03*
X621474D02*
D03*
Y455930D02*
D03*
Y465430D02*
D03*
D25*
X632460Y654680D02*
D03*
Y640080D02*
D03*
D26*
X540030Y570230D02*
D03*
X575030D02*
D03*
D27*
X774550Y306070D02*
D03*
X781050D02*
D03*
X787550D02*
D03*
X794050D02*
D03*
X800550D02*
D03*
D43*
X405130Y679450D02*
D03*
X772160Y793750D02*
D03*
X632460Y326390D02*
D03*
X604520Y351790D02*
D03*
X1002030Y542290D02*
D03*
D44*
X405130Y654050D02*
D03*
Y628650D02*
D03*
Y603250D02*
D03*
Y577850D02*
D03*
Y552450D02*
D03*
X772160Y819150D02*
D03*
X632460Y351790D02*
D03*
X1055370Y363220D02*
D03*
X948690Y364490D02*
D03*
X604520Y326390D02*
D03*
X1002030Y567690D02*
D03*
D45*
X1029970Y363220D02*
D03*
X923290Y364490D02*
D03*
D46*
X787550Y287070D02*
D03*
X759550Y308570D02*
D03*
X815550D02*
D03*
D47*
X981710Y805180D02*
D03*
X755650Y850900D02*
D03*
X619760Y728980D02*
D03*
X711200Y772160D02*
D03*
X457200Y737870D02*
D03*
X383540Y419100D02*
D03*
X751840Y500380D02*
D03*
X850704Y557530D02*
D03*
X853440Y579120D02*
D03*
X717550Y477520D02*
D03*
X713740Y499110D02*
D03*
X677545Y530340D02*
D03*
X706120Y520700D02*
D03*
X955040Y629920D02*
D03*
X853440Y621030D02*
D03*
X905510Y617220D02*
D03*
X854710Y600710D02*
D03*
X889635Y636905D02*
D03*
X890270Y599440D02*
D03*
X826770Y734060D02*
D03*
X889000Y704850D02*
D03*
X830580Y871220D02*
D03*
M02*
