G04*
G04 #@! TF.GenerationSoftware,Altium Limited,Altium Designer,20.1.14 (287)*
G04*
G04 Layer_Color=128*
%FSLAX44Y44*%
%MOMM*%
G71*
G04*
G04 #@! TF.SameCoordinates,0151AA7F-9923-44C8-ACC0-2CDA610C712D*
G04*
G04*
G04 #@! TF.FilePolarity,Positive*
G04*
G01*
G75*
%ADD48C,0.0508*%
D48*
X400630Y679450D02*
X409630D01*
X405130Y674950D02*
Y683950D01*
X400630Y654050D02*
X409630D01*
X405130Y649550D02*
Y658550D01*
X400630Y628650D02*
X409630D01*
X405130Y624150D02*
Y633150D01*
X400630Y603250D02*
X409630D01*
X405130Y598750D02*
Y607750D01*
X400630Y577850D02*
X409630D01*
X405130Y573350D02*
Y582350D01*
X400630Y552450D02*
X409630D01*
X405130Y547950D02*
Y556950D01*
X767660Y819150D02*
X776660D01*
X772160Y814650D02*
Y823650D01*
X767660Y793750D02*
X776660D01*
X772160Y789250D02*
Y798250D01*
X627960Y351790D02*
X636960D01*
X632460Y347290D02*
Y356290D01*
X627960Y326390D02*
X636960D01*
X632460Y321890D02*
Y330890D01*
X1050870Y363220D02*
X1059870D01*
X1055370Y358720D02*
Y367720D01*
X1025470Y363220D02*
X1034470D01*
X1029970Y358720D02*
Y367720D01*
X944190Y364490D02*
X953190D01*
X948690Y359990D02*
Y368990D01*
X918790Y364490D02*
X927790D01*
X923290Y359990D02*
Y368990D01*
X600020Y326390D02*
X609020D01*
X604520Y321890D02*
Y330890D01*
X600020Y351790D02*
X609020D01*
X604520Y347290D02*
Y356290D01*
X785050Y287070D02*
X790050D01*
X787550Y284570D02*
Y289570D01*
X757050Y308570D02*
X762050D01*
X759550Y306070D02*
Y311070D01*
X813050Y308570D02*
X818050D01*
X815550Y306070D02*
Y311070D01*
X997530Y567690D02*
X1006530D01*
X1002030Y563190D02*
Y572190D01*
X997530Y542290D02*
X1006530D01*
X1002030Y537790D02*
Y546790D01*
X978154Y805180D02*
X985266D01*
X981710Y801624D02*
Y808736D01*
X752094Y850900D02*
X759206D01*
X755650Y847344D02*
Y854456D01*
X616204Y728980D02*
X623316D01*
X619760Y725424D02*
Y732536D01*
X707644Y772160D02*
X714756D01*
X711200Y768604D02*
Y775716D01*
X453644Y737870D02*
X460756D01*
X457200Y734314D02*
Y741426D01*
X379984Y419100D02*
X387096D01*
X383540Y415544D02*
Y422656D01*
X748284Y500380D02*
X755396D01*
X751840Y496824D02*
Y503936D01*
X847148Y557530D02*
X854260D01*
X850704Y553974D02*
Y561086D01*
X849884Y579120D02*
X856996D01*
X853440Y575564D02*
Y582676D01*
X713994Y477520D02*
X721106D01*
X717550Y473964D02*
Y481076D01*
X710184Y499110D02*
X717296D01*
X713740Y495554D02*
Y502666D01*
X673989Y530340D02*
X681101D01*
X677545Y526784D02*
Y533896D01*
X702564Y520700D02*
X709676D01*
X706120Y517144D02*
Y524256D01*
X951484Y629920D02*
X958596D01*
X955040Y626364D02*
Y633476D01*
X849884Y621030D02*
X856996D01*
X853440Y617474D02*
Y624586D01*
X901954Y617220D02*
X909066D01*
X905510Y613664D02*
Y620776D01*
X851154Y600710D02*
X858266D01*
X854710Y597154D02*
Y604266D01*
X886079Y636905D02*
X893191D01*
X889635Y633349D02*
Y640461D01*
X886714Y599440D02*
X893826D01*
X890270Y595884D02*
Y602996D01*
X823214Y734060D02*
X830326D01*
X826770Y730504D02*
Y737616D01*
X885444Y704850D02*
X892556D01*
X889000Y701294D02*
Y708406D01*
X827024Y871220D02*
X834136D01*
X830580Y867664D02*
Y874776D01*
M02*
