G04*
G04 #@! TF.GenerationSoftware,Altium Limited,Altium Designer,20.1.14 (287)*
G04*
G04 Layer_Color=65535*
%FSLAX44Y44*%
%MOMM*%
G71*
G04*
G04 #@! TF.SameCoordinates,0151AA7F-9923-44C8-ACC0-2CDA610C712D*
G04*
G04*
G04 #@! TF.FilePolarity,Positive*
G04*
G01*
G75*
%ADD10C,0.2000*%
%ADD11C,0.0500*%
%ADD12C,0.2540*%
%ADD13C,0.1270*%
%ADD14C,0.1524*%
%ADD15C,0.1500*%
%ADD16C,0.0762*%
D10*
X681373Y656640D02*
G03*
X681373Y656640I-1803J0D01*
G01*
X775550Y318570D02*
G03*
X775550Y318570I-1000J0D01*
G01*
X392430Y539750D02*
X417830D01*
X392430Y692150D02*
X417830D01*
Y539750D02*
Y692150D01*
X392430Y539750D02*
Y692150D01*
X598060Y493110D02*
Y505110D01*
X949040Y427990D02*
X961040D01*
X797560Y823383D02*
X831427D01*
X835660Y819150D01*
X831427Y814917D02*
X835660Y819150D01*
X797560Y814917D02*
X831427D01*
X797560Y797983D02*
X831427D01*
X831427Y797983D02*
X835660Y793750D01*
X831427Y789517D02*
X835660Y793750D01*
X797560Y789517D02*
X831427D01*
X784860Y781050D02*
Y831850D01*
Y781050D02*
X797560D01*
X784860Y831850D02*
X797560D01*
Y781050D02*
Y831850D01*
X657860Y356023D02*
X691727D01*
X695960Y351790D01*
X691727Y347557D02*
X695960Y351790D01*
X657860Y347557D02*
X691727D01*
X657860Y330623D02*
X691727D01*
X691727Y330623D02*
X695960Y326390D01*
X691727Y322157D02*
X695960Y326390D01*
X657860Y322157D02*
X691727D01*
X645160Y313690D02*
Y364490D01*
Y313690D02*
X657860D01*
X645160Y364490D02*
X657860D01*
Y313690D02*
Y364490D01*
X1059603Y303953D02*
Y337820D01*
X1055370Y299720D02*
X1059603Y303953D01*
X1051137D02*
X1055370Y299720D01*
X1051137Y303953D02*
Y337820D01*
X1034203Y303953D02*
Y337820D01*
X1029970Y299720D02*
X1034203Y303953D01*
X1025737D02*
X1029970Y299720D01*
X1025737Y303953D02*
Y337820D01*
X1017270Y350520D02*
X1068070D01*
X1017270Y337820D02*
Y350520D01*
X1068070Y337820D02*
Y350520D01*
X1017270Y337820D02*
X1068070D01*
X498080Y490220D02*
X510080D01*
X952923Y305223D02*
Y339090D01*
X948690Y300990D02*
X952923Y305223D01*
X944457D02*
X948690Y300990D01*
X944457Y305223D02*
Y339090D01*
X927523Y305223D02*
Y339090D01*
X923290Y300990D02*
X927523Y305223D01*
X919057D02*
X923290Y300990D01*
X919057Y305223D02*
Y339090D01*
X910590Y351790D02*
X961390D01*
X910590Y339090D02*
Y351790D01*
X961390Y339090D02*
Y351790D01*
X910590Y339090D02*
X961390D01*
X545253Y322157D02*
X579120D01*
X541020Y326390D02*
X545253Y322157D01*
X541020Y326390D02*
X545253Y330623D01*
X579120D01*
X545253Y347557D02*
X579120D01*
X541020Y351790D02*
X545253Y347557D01*
X541020Y351790D02*
X545253Y356023D01*
X579120D01*
X591820Y313690D02*
Y364490D01*
X579120D02*
X591820D01*
X579120Y313690D02*
X591820D01*
X579120D02*
Y364490D01*
X595030Y545230D02*
Y570230D01*
X520030Y545230D02*
X595030D01*
X520030D02*
Y595230D01*
X595030D01*
Y570230D02*
Y595230D01*
X1027430Y571923D02*
X1061297D01*
X1065530Y567690D01*
X1061297Y563457D02*
X1065530Y567690D01*
X1027430Y563457D02*
X1061297D01*
X1027430Y546523D02*
X1061297D01*
X1061297Y546523D02*
X1065530Y542290D01*
X1061297Y538057D02*
X1065530Y542290D01*
X1027430Y538057D02*
X1061297D01*
X1014730Y529590D02*
Y580390D01*
Y529590D02*
X1027430D01*
X1014730Y580390D02*
X1027430D01*
Y529590D02*
Y580390D01*
D11*
X638374Y662380D02*
G03*
X638374Y662380I-1414J0D01*
G01*
D12*
X725170Y883920D02*
Y960120D01*
Y883920D02*
X798830D01*
Y960120D01*
X725170D02*
X798830D01*
X330200Y297180D02*
Y299720D01*
Y307340D01*
Y297180D02*
X364490Y262890D01*
X1096010D01*
X1125220Y292100D01*
Y1018540D01*
X1082040Y1061720D02*
X1125220Y1018540D01*
X372110Y1061720D02*
X1082040D01*
X330200Y1019810D02*
X372110Y1061720D01*
X330200Y307340D02*
Y1019810D01*
X736597Y981706D02*
X734057Y984245D01*
X728979D01*
X726440Y981706D01*
Y979167D01*
X728979Y976628D01*
X734057D01*
X736597Y974088D01*
Y971549D01*
X734057Y969010D01*
X728979D01*
X726440Y971549D01*
X741675Y984245D02*
Y969010D01*
X746753Y974088D01*
X751832Y969010D01*
Y984245D01*
X756910D02*
Y969010D01*
X764528D01*
X767067Y971549D01*
Y981706D01*
X764528Y984245D01*
X756910D01*
X658876Y676651D02*
Y663955D01*
X661415Y661416D01*
X666494D01*
X669033Y663955D01*
Y676651D01*
X392430Y918210D02*
Y928367D01*
X397508Y933445D01*
X402587Y928367D01*
Y918210D01*
Y925827D01*
X392430D01*
X407665Y928367D02*
Y920749D01*
X410204Y918210D01*
X417822D01*
Y928367D01*
X425439Y930906D02*
Y928367D01*
X422900D01*
X427979D01*
X425439D01*
Y920749D01*
X427979Y918210D01*
X435596Y933445D02*
Y918210D01*
Y925827D01*
X438135Y928367D01*
X443214D01*
X445753Y925827D01*
Y918210D01*
X453370D02*
X458449D01*
X460988Y920749D01*
Y925827D01*
X458449Y928367D01*
X453370D01*
X450831Y925827D01*
Y920749D01*
X453370Y918210D01*
X466066Y928367D02*
Y918210D01*
Y923288D01*
X468605Y925827D01*
X471144Y928367D01*
X473684D01*
X481301D02*
X483840D01*
Y925827D01*
X481301D01*
Y928367D01*
Y920749D02*
X483840D01*
Y918210D01*
X481301D01*
Y920749D01*
X509232Y918210D02*
Y933445D01*
X514311Y928367D01*
X519389Y933445D01*
Y918210D01*
X534624Y930906D02*
X532085Y933445D01*
X527006D01*
X524467Y930906D01*
Y928367D01*
X527006Y925827D01*
X532085D01*
X534624Y923288D01*
Y920749D01*
X532085Y918210D01*
X527006D01*
X524467Y920749D01*
X549859Y930906D02*
X547320Y933445D01*
X542242D01*
X539702Y930906D01*
Y928367D01*
X542242Y925827D01*
X547320D01*
X549859Y923288D01*
Y920749D01*
X547320Y918210D01*
X542242D01*
X539702Y920749D01*
X400047Y946148D02*
X389890D01*
X400047Y956305D01*
Y958844D01*
X397508Y961383D01*
X392429D01*
X389890Y958844D01*
X405125Y946148D02*
Y956305D01*
X412743D01*
X415282Y953766D01*
Y946148D01*
X430517Y961383D02*
Y946148D01*
X422899D01*
X420360Y948688D01*
Y953766D01*
X422899Y956305D01*
X430517D01*
X460987Y958844D02*
X458448Y961383D01*
X453369D01*
X450830Y958844D01*
Y956305D01*
X453369Y953766D01*
X458448D01*
X460987Y951227D01*
Y948688D01*
X458448Y946148D01*
X453369D01*
X450830Y948688D01*
X473683Y946148D02*
X468605D01*
X466065Y948688D01*
Y953766D01*
X468605Y956305D01*
X473683D01*
X476222Y953766D01*
Y951227D01*
X466065D01*
X481300Y941070D02*
Y956305D01*
X488918D01*
X491457Y953766D01*
Y948688D01*
X488918Y946148D01*
X481300D01*
X521927D02*
X511771D01*
X521927Y956305D01*
Y958844D01*
X519388Y961383D01*
X514310D01*
X511771Y958844D01*
X527006D02*
X529545Y961383D01*
X534623D01*
X537162Y958844D01*
Y948688D01*
X534623Y946148D01*
X529545D01*
X527006Y948688D01*
Y958844D01*
X552397Y946148D02*
X542241D01*
X552397Y956305D01*
Y958844D01*
X549858Y961383D01*
X544780D01*
X542241Y958844D01*
X557476D02*
X560015Y961383D01*
X565093D01*
X567632Y958844D01*
Y948688D01*
X565093Y946148D01*
X560015D01*
X557476Y948688D01*
Y958844D01*
X401317Y988055D02*
X398778Y990594D01*
X393699D01*
X391160Y988055D01*
Y985516D01*
X393699Y982977D01*
X398778D01*
X401317Y980437D01*
Y977898D01*
X398778Y975359D01*
X393699D01*
X391160Y977898D01*
X406395Y975359D02*
Y985516D01*
X411473Y990594D01*
X416552Y985516D01*
Y975359D01*
Y982977D01*
X406395D01*
X421630Y975359D02*
Y990594D01*
X426708Y985516D01*
X431787Y990594D01*
Y975359D01*
X436865Y990594D02*
Y975359D01*
X444483D01*
X447022Y977898D01*
Y988055D01*
X444483Y990594D01*
X436865D01*
X462257Y975359D02*
X452100D01*
X462257Y985516D01*
Y988055D01*
X459718Y990594D01*
X454640D01*
X452100Y988055D01*
X467335Y975359D02*
X472414D01*
X469874D01*
Y990594D01*
X467335Y988055D01*
X480031Y972820D02*
X490188D01*
X495266Y990594D02*
Y975359D01*
X502884D01*
X505423Y977898D01*
Y980437D01*
X502884Y982977D01*
X495266D01*
X502884D01*
X505423Y985516D01*
Y988055D01*
X502884Y990594D01*
X495266D01*
X513041Y985516D02*
X518119D01*
X520658Y982977D01*
Y975359D01*
X513041D01*
X510501Y977898D01*
X513041Y980437D01*
X520658D01*
X525737Y975359D02*
X533354D01*
X535893Y977898D01*
X533354Y980437D01*
X528276D01*
X525737Y982977D01*
X528276Y985516D01*
X535893D01*
X548589Y975359D02*
X543511D01*
X540971Y977898D01*
Y982977D01*
X543511Y985516D01*
X548589D01*
X551128Y982977D01*
Y980437D01*
X540971D01*
X556207Y972820D02*
X566363D01*
X571442Y990594D02*
Y980437D01*
X576520Y975359D01*
X581598Y980437D01*
Y990594D01*
X586677Y975359D02*
X591755D01*
X589216D01*
Y990594D01*
X586677Y988055D01*
X358140Y543560D02*
X363218D01*
X360679D01*
Y558795D01*
X358140Y556256D01*
X370836D02*
X373375Y558795D01*
X378453D01*
X380993Y556256D01*
Y546099D01*
X378453Y543560D01*
X373375D01*
X370836Y546099D01*
Y556256D01*
X358140Y582926D02*
X360679Y585465D01*
X365757D01*
X368297Y582926D01*
Y572769D01*
X365757Y570230D01*
X360679D01*
X358140Y572769D01*
Y582926D01*
X373375Y572769D02*
X375914Y570230D01*
X380993D01*
X383532Y572769D01*
Y582926D01*
X380993Y585465D01*
X375914D01*
X373375Y582926D01*
Y580387D01*
X375914Y577848D01*
X383532D01*
X356870Y609596D02*
X359409Y612135D01*
X364487D01*
X367027Y609596D01*
Y599439D01*
X364487Y596900D01*
X359409D01*
X356870Y599439D01*
Y609596D01*
X372105D02*
X374644Y612135D01*
X379723D01*
X382262Y609596D01*
Y607057D01*
X379723Y604518D01*
X382262Y601978D01*
Y599439D01*
X379723Y596900D01*
X374644D01*
X372105Y599439D01*
Y601978D01*
X374644Y604518D01*
X372105Y607057D01*
Y609596D01*
X374644Y604518D02*
X379723D01*
X355600Y634996D02*
X358139Y637535D01*
X363218D01*
X365757Y634996D01*
Y624839D01*
X363218Y622300D01*
X358139D01*
X355600Y624839D01*
Y634996D01*
X378453Y622300D02*
Y637535D01*
X370835Y629917D01*
X380992D01*
X354330Y661666D02*
X356869Y664205D01*
X361948D01*
X364487Y661666D01*
Y651509D01*
X361948Y648970D01*
X356869D01*
X354330Y651509D01*
Y661666D01*
X369565D02*
X372104Y664205D01*
X377183D01*
X379722Y661666D01*
Y659127D01*
X377183Y656588D01*
X374643D01*
X377183D01*
X379722Y654048D01*
Y651509D01*
X377183Y648970D01*
X372104D01*
X369565Y651509D01*
X353060Y689606D02*
X355599Y692145D01*
X360677D01*
X363217Y689606D01*
Y679449D01*
X360677Y676910D01*
X355599D01*
X353060Y679449D01*
Y689606D01*
X378452Y676910D02*
X368295D01*
X378452Y687067D01*
Y689606D01*
X375913Y692145D01*
X370834D01*
X368295Y689606D01*
X355600Y709930D02*
Y725165D01*
X363218D01*
X365757Y722626D01*
Y717548D01*
X363218Y715008D01*
X355600D01*
X370835Y709930D02*
Y720087D01*
X375913Y725165D01*
X380992Y720087D01*
Y709930D01*
Y717548D01*
X370835D01*
X435612Y572782D02*
X433073Y570243D01*
Y565165D01*
X435612Y562626D01*
X438152D01*
X440691Y565165D01*
Y570243D01*
X443230Y572782D01*
X445769D01*
X448308Y570243D01*
Y565165D01*
X445769Y562626D01*
X448308Y577861D02*
Y582939D01*
Y580400D01*
X438152D01*
Y577861D01*
X453387Y595635D02*
Y598174D01*
X450848Y600713D01*
X438152D01*
Y593096D01*
X440691Y590557D01*
X445769D01*
X448308Y593096D01*
Y600713D01*
Y605792D02*
X438152D01*
Y613409D01*
X440691Y615948D01*
X448308D01*
X438152Y623566D02*
Y628644D01*
X440691Y631183D01*
X448308D01*
Y623566D01*
X445769Y621027D01*
X443230Y623566D01*
Y631183D01*
X448308Y636262D02*
Y641340D01*
Y638801D01*
X433073D01*
Y636262D01*
X448308Y648958D02*
Y656575D01*
X445769Y659114D01*
X443230Y656575D01*
Y651497D01*
X440691Y648958D01*
X438152Y651497D01*
Y659114D01*
X603252Y656588D02*
Y654048D01*
X608330Y648970D01*
X613408Y654048D01*
Y656588D01*
X608330Y648970D02*
Y641352D01*
X748238Y346668D02*
X743160D01*
X745699D01*
Y333972D01*
X743160Y331432D01*
X740621D01*
X738082Y333972D01*
X995934Y604261D02*
X1001012D01*
X998473D01*
Y589026D01*
X995934D01*
X1001012D01*
X1018787D02*
X1008630D01*
X1018787Y599183D01*
Y601722D01*
X1016247Y604261D01*
X1011169D01*
X1008630Y601722D01*
X1034022D02*
X1031482Y604261D01*
X1026404D01*
X1023865Y601722D01*
Y591565D01*
X1026404Y589026D01*
X1031482D01*
X1034022Y591565D01*
D13*
X793070Y561640D02*
X801070D01*
Y569640D01*
X700070Y561640D02*
X708070D01*
X700070D02*
Y569640D01*
X801070Y654640D02*
Y662640D01*
X793070D02*
X801070D01*
X700070Y654640D02*
Y662640D01*
X708070D01*
X747550Y282070D02*
Y299870D01*
Y282070D02*
X773350D01*
X827550D02*
Y299870D01*
X801750Y282070D02*
X827550D01*
D14*
X625221Y472694D02*
X644779D01*
Y452297D02*
Y459563D01*
X625221Y439166D02*
X644779D01*
D15*
X756128Y484744D02*
X754462Y483078D01*
Y479745D01*
X756128Y478079D01*
X762792D01*
X764458Y479745D01*
Y483078D01*
X762792Y484744D01*
X764458Y493074D02*
X754462D01*
X759460Y488076D01*
Y494741D01*
X757638Y513954D02*
X755972Y512288D01*
Y508955D01*
X757638Y507289D01*
X764302D01*
X765968Y508955D01*
Y512288D01*
X764302Y513954D01*
X755972Y523951D02*
Y517286D01*
X760970D01*
X759304Y520618D01*
Y522285D01*
X760970Y523951D01*
X764302D01*
X765968Y522285D01*
Y518952D01*
X764302Y517286D01*
X854038Y515620D02*
X852372Y513954D01*
Y510622D01*
X854038Y508955D01*
X860702D01*
X862368Y510622D01*
Y513954D01*
X860702Y515620D01*
X862368Y518952D02*
Y522285D01*
Y520618D01*
X852372D01*
X854038Y518952D01*
X855188Y487284D02*
X853522Y485618D01*
Y482285D01*
X855188Y480619D01*
X861852D01*
X863518Y482285D01*
Y485618D01*
X861852Y487284D01*
X853522Y497281D02*
X855188Y493948D01*
X858520Y490616D01*
X861852D01*
X863518Y492282D01*
Y495615D01*
X861852Y497281D01*
X860186D01*
X858520Y495615D01*
Y490616D01*
X581550Y525617D02*
Y515620D01*
X588214D01*
X598211Y525617D02*
X591547D01*
Y515620D01*
X598211D01*
X591547Y520618D02*
X594879D01*
X601544Y525617D02*
Y515620D01*
X606542D01*
X608208Y517286D01*
Y523951D01*
X606542Y525617D01*
X601544D01*
X974568Y446277D02*
X984565D01*
Y441278D01*
X982898Y439612D01*
X979566D01*
X977900Y441278D01*
Y446277D01*
Y442944D02*
X974568Y439612D01*
X971236Y436280D02*
X981232D01*
Y431281D01*
X979566Y429615D01*
X976234D01*
X974568Y431281D01*
Y436280D01*
X981232Y426283D02*
X976234D01*
X974568Y424617D01*
Y419618D01*
X981232D01*
X974568Y416286D02*
Y412954D01*
Y414620D01*
X984565D01*
Y416286D01*
X974568Y407956D02*
Y404623D01*
Y406289D01*
X984565D01*
Y407956D01*
X746710Y415372D02*
X748376Y413705D01*
X751708D01*
X753374Y415372D01*
Y422036D01*
X751708Y423702D01*
X748376D01*
X746710Y422036D01*
X743377Y413705D02*
Y423702D01*
X738379D01*
X736713Y422036D01*
Y420370D01*
Y418704D01*
X738379Y417038D01*
X743377D01*
X733381Y427034D02*
Y417038D01*
X728382D01*
X726716Y418704D01*
Y422036D01*
X728382Y423702D01*
X733381D01*
X718385Y413705D02*
X721718D01*
X723384Y415372D01*
Y422036D01*
X721718Y423702D01*
X718385D01*
X716719Y422036D01*
Y415372D01*
X718385Y413705D01*
X713387D02*
Y422036D01*
X711721Y423702D01*
X708389D01*
X706723Y422036D01*
Y413705D01*
X703390D02*
X696726D01*
X700058D01*
Y423702D01*
X518242Y413432D02*
X516575Y411766D01*
Y408433D01*
X518242Y406767D01*
X524906D01*
X526572Y408433D01*
Y411766D01*
X524906Y413432D01*
X516575Y416764D02*
X526572D01*
Y421763D01*
X524906Y423429D01*
X523240D01*
X521574D01*
X519908Y421763D01*
Y416764D01*
X529905Y426761D02*
X519908D01*
Y431759D01*
X521574Y433425D01*
X524906D01*
X526572Y431759D01*
Y426761D01*
X516575Y436758D02*
Y440090D01*
Y438424D01*
X526572D01*
Y436758D01*
Y440090D01*
Y445088D02*
X516575D01*
X526572Y451753D01*
X516575D01*
X874115Y768211D02*
X864118D01*
Y773209D01*
X865785Y774875D01*
X869117D01*
X870783Y773209D01*
Y768211D01*
X875781Y778207D02*
Y784872D01*
X864118Y788204D02*
X870783D01*
X874115Y791536D01*
X870783Y794869D01*
X864118D01*
Y798201D02*
X874115D01*
Y803199D01*
X872449Y804865D01*
X865785D01*
X864118Y803199D01*
Y798201D01*
Y808198D02*
X874115D01*
Y813196D01*
X872449Y814862D01*
X865785D01*
X864118Y813196D01*
Y808198D01*
X875781Y818195D02*
Y824859D01*
X865785Y834856D02*
X864118Y833190D01*
Y829857D01*
X865785Y828191D01*
X867451D01*
X869117Y829857D01*
Y833190D01*
X870783Y834856D01*
X872449D01*
X874115Y833190D01*
Y829857D01*
X872449Y828191D01*
X864118Y838188D02*
X874115D01*
X870783Y841520D01*
X874115Y844853D01*
X864118D01*
Y848185D02*
X874115D01*
Y853183D01*
X872449Y854849D01*
X865785D01*
X864118Y853183D01*
Y848185D01*
X629291Y427908D02*
Y417912D01*
X635956D01*
X639288Y427908D02*
Y417912D01*
X644286D01*
X645952Y419578D01*
Y426242D01*
X644286Y427908D01*
X639288D01*
X654283D02*
X650951D01*
X649285Y426242D01*
Y419578D01*
X650951Y417912D01*
X654283D01*
X655949Y419578D01*
Y426242D01*
X654283Y427908D01*
X627159Y385561D02*
Y377231D01*
X628825Y375565D01*
X632157D01*
X633824Y377231D01*
Y385561D01*
X643820Y383895D02*
X642154Y385561D01*
X638822D01*
X637156Y383895D01*
Y382229D01*
X638822Y380563D01*
X642154D01*
X643820Y378897D01*
Y377231D01*
X642154Y375565D01*
X638822D01*
X637156Y377231D01*
X647153Y385561D02*
Y375565D01*
X652151D01*
X653817Y377231D01*
Y378897D01*
X652151Y380563D01*
X647153D01*
X652151D01*
X653817Y382229D01*
Y383895D01*
X652151Y385561D01*
X647153D01*
X657149Y373899D02*
X663814D01*
X667146Y385561D02*
Y378897D01*
X670478Y375565D01*
X673811Y378897D01*
Y385561D01*
X677143D02*
Y375565D01*
X682141D01*
X683807Y377231D01*
Y378897D01*
X682141Y380563D01*
X677143D01*
X682141D01*
X683807Y382229D01*
Y383895D01*
X682141Y385561D01*
X677143D01*
X687140D02*
Y377231D01*
X688806Y375565D01*
X692138D01*
X693804Y377231D01*
Y385561D01*
X703801Y383895D02*
X702135Y385561D01*
X698803D01*
X697137Y383895D01*
Y382229D01*
X698803Y380563D01*
X702135D01*
X703801Y378897D01*
Y377231D01*
X702135Y375565D01*
X698803D01*
X697137Y377231D01*
X1017778Y389981D02*
Y381650D01*
X1019444Y379984D01*
X1022776D01*
X1024443Y381650D01*
Y389981D01*
X1034439Y388315D02*
X1032773Y389981D01*
X1029441D01*
X1027775Y388315D01*
Y386648D01*
X1029441Y384982D01*
X1032773D01*
X1034439Y383316D01*
Y381650D01*
X1032773Y379984D01*
X1029441D01*
X1027775Y381650D01*
X1037772Y389981D02*
Y379984D01*
X1042770D01*
X1044436Y381650D01*
Y383316D01*
X1042770Y384982D01*
X1037772D01*
X1042770D01*
X1044436Y386648D01*
Y388315D01*
X1042770Y389981D01*
X1037772D01*
X1047768Y378318D02*
X1054433D01*
X1057765Y389981D02*
X1061097D01*
X1059431D01*
Y379984D01*
X1057765D01*
X1061097D01*
X1066096Y389981D02*
Y379984D01*
X1071094D01*
X1072760Y381650D01*
Y388315D01*
X1071094Y389981D01*
X1066096D01*
X495698Y514858D02*
Y524855D01*
X500696D01*
X502363Y523189D01*
Y519856D01*
X500696Y518190D01*
X495698D01*
X499030D02*
X502363Y514858D01*
X505695D02*
X509027D01*
X507361D01*
Y524855D01*
X505695D01*
X519024Y514858D02*
X515692D01*
X514025Y516524D01*
Y519856D01*
X515692Y521522D01*
X519024D01*
X520690Y519856D01*
Y518190D01*
X514025D01*
X530687Y524855D02*
Y514858D01*
X525688D01*
X524022Y516524D01*
Y519856D01*
X525688Y521522D01*
X530687D01*
X911098Y379476D02*
Y389473D01*
X916096D01*
X917763Y387807D01*
Y384474D01*
X916096Y382808D01*
X911098D01*
X914430D02*
X917763Y379476D01*
X927759Y389473D02*
X921095D01*
Y379476D01*
X927759D01*
X921095Y384474D02*
X924427D01*
X937756Y387807D02*
X936090Y389473D01*
X932758D01*
X931092Y387807D01*
Y386141D01*
X932758Y384474D01*
X936090D01*
X937756Y382808D01*
Y381142D01*
X936090Y379476D01*
X932758D01*
X931092Y381142D01*
X947753Y389473D02*
X941088D01*
Y379476D01*
X947753D01*
X941088Y384474D02*
X944421D01*
X951085Y389473D02*
X957750D01*
X954417D01*
Y379476D01*
X551984Y376002D02*
Y385998D01*
X556983D01*
X558649Y384332D01*
Y381000D01*
X556983Y379334D01*
X551984D01*
X566979Y385998D02*
X563647D01*
X561981Y384332D01*
Y377668D01*
X563647Y376002D01*
X566979D01*
X568646Y377668D01*
Y384332D01*
X566979Y385998D01*
X571978D02*
Y376002D01*
X575310Y379334D01*
X578642Y376002D01*
Y385998D01*
X588639D02*
X581974D01*
Y376002D01*
X588639D01*
X581974Y381000D02*
X585307D01*
X591971Y376002D02*
Y385998D01*
X596970D01*
X598636Y384332D01*
Y381000D01*
X596970Y379334D01*
X591971D01*
X595304D02*
X598636Y376002D01*
X520446Y612739D02*
Y602742D01*
X527110D01*
X530443D02*
X533775D01*
X532109D01*
Y612739D01*
X530443Y611073D01*
X562671Y648157D02*
X561004Y649823D01*
X557672D01*
X556006Y648157D01*
Y641492D01*
X557672Y639826D01*
X561004D01*
X562671Y641492D01*
X566003Y646490D02*
X572667Y639826D01*
X569335Y643158D01*
X572667Y646490D01*
X566003Y639826D01*
X582664D02*
X576000D01*
X582664Y646490D01*
Y648157D01*
X580998Y649823D01*
X577666D01*
X576000Y648157D01*
X561400Y684987D02*
X559734Y686653D01*
X556402D01*
X554736Y684987D01*
Y678322D01*
X556402Y676656D01*
X559734D01*
X561400Y678322D01*
X564733Y683320D02*
X571397Y676656D01*
X568065Y679988D01*
X571397Y683320D01*
X564733Y676656D01*
X574730D02*
X578062D01*
X576396D01*
Y686653D01*
X574730Y684987D01*
X856040Y749757D02*
X854374Y751423D01*
X851042D01*
X849376Y749757D01*
Y743092D01*
X851042Y741426D01*
X854374D01*
X856040Y743092D01*
X859373Y751423D02*
X866037D01*
Y749757D01*
X859373Y743092D01*
Y741426D01*
X645220Y618947D02*
X643554Y620613D01*
X640222D01*
X638556Y618947D01*
Y612282D01*
X640222Y610616D01*
X643554D01*
X645220Y612282D01*
X648553Y618947D02*
X650219Y620613D01*
X653551D01*
X655217Y618947D01*
Y617281D01*
X653551Y615614D01*
X651885D01*
X653551D01*
X655217Y613948D01*
Y612282D01*
X653551Y610616D01*
X650219D01*
X648553Y612282D01*
X646490Y579577D02*
X644824Y581243D01*
X641492D01*
X639826Y579577D01*
Y572912D01*
X641492Y571246D01*
X644824D01*
X646490Y572912D01*
X656487Y571246D02*
X649823D01*
X656487Y577910D01*
Y579577D01*
X654821Y581243D01*
X651489D01*
X649823Y579577D01*
D16*
X615760Y479820D02*
X624223Y471356D01*
X615760D02*
X624223Y479820D01*
X615760Y475588D02*
X624223D01*
X619991Y471356D02*
Y479820D01*
M02*
