M48
;Layer_Color=9474304
;FILE_FORMAT=4:4
METRIC,LZ
;TYPE=PLATED
T2F00S00C0.7112
T3F00S00C0.9000
%
T02
X00850704Y0055753
X0085344Y0057912
X0085471Y0060071
X0085344Y0062103
X00889635Y00636905
X0090551Y0061722
X0089027Y0059944
X0095504Y0062992
X00889Y0070485
X0082677Y0073406
X007112Y0077216
X0061976Y0072898
X004572Y0073787
X00677545Y0053034
X0070612Y005207
X0071374Y0049911
X0071755Y0047752
X0075184Y0050038
X0038354Y004191
X0075565Y008509
X0083058Y0087122
X0098171Y0080518
T03
X0060452Y0032639
Y0035179
X0063246
Y0032639
X0092329Y0036449
X0094869
X0102997Y0036322
X0105537
X0100203Y0054229
Y0056769
X0040513Y0057785
Y0060325
Y0062865
Y0065405
Y0067945
Y0055245
X0077216Y0079375
Y0081915
M30
